M48
; DRILL file {KiCad 9.0.1} date 2025-07-05T23:22:54+1000
; FORMAT={-:-/ absolute / metric / decimal}
; #@! TF.CreationDate,2025-07-05T23:22:54+10:00
; #@! TF.GenerationSoftware,Kicad,Pcbnew,9.0.1
; #@! TF.FileFunction,NonPlated,1,2,NPTH
FMAT,2
METRIC
; #@! TA.AperFunction,NonPlated,NPTH,ComponentDrill
T1C1.700
; #@! TA.AperFunction,NonPlated,NPTH,ComponentDrill
T2C3.200
; #@! TA.AperFunction,NonPlated,NPTH,ComponentDrill
T3C4.000
%
G90
G05
T1
X42.38Y-55.08
X42.38Y-75.08
X52.54Y-55.08
X52.54Y-75.08
X62.38Y-55.08
X62.38Y-75.08
X72.54Y-55.08
X72.54Y-75.08
X82.38Y-55.08
X82.38Y-75.08
X92.54Y-55.08
X92.54Y-75.08
T2
X38.0Y-84.6
X38.8Y-28.2
X97.2Y-84.8
T3
X47.46Y-55.08
X47.46Y-75.08
X67.46Y-55.08
X67.46Y-75.08
X87.46Y-55.08
X87.46Y-75.08
M30
