%TF.GenerationSoftware,KiCad,Pcbnew,9.0.1*%
%TF.CreationDate,2025-07-05T23:22:52+10:00*%
%TF.ProjectId,macropad,6d616372-6f70-4616-942e-6b696361645f,rev?*%
%TF.SameCoordinates,Original*%
%TF.FileFunction,Copper,L1,Top*%
%TF.FilePolarity,Positive*%
%FSLAX46Y46*%
G04 Gerber Fmt 4.6, Leading zero omitted, Abs format (unit mm)*
G04 Created by KiCad (PCBNEW 9.0.1) date 2025-07-05 23:22:52*
%MOMM*%
%LPD*%
G01*
G04 APERTURE LIST*
G04 Aperture macros list*
%AMRoundRect*
0 Rectangle with rounded corners*
0 $1 Rounding radius*
0 $2 $3 $4 $5 $6 $7 $8 $9 X,Y pos of 4 corners*
0 Add a 4 corners polygon primitive as box body*
4,1,4,$2,$3,$4,$5,$6,$7,$8,$9,$2,$3,0*
0 Add four circle primitives for the rounded corners*
1,1,$1+$1,$2,$3*
1,1,$1+$1,$4,$5*
1,1,$1+$1,$6,$7*
1,1,$1+$1,$8,$9*
0 Add four rect primitives between the rounded corners*
20,1,$1+$1,$2,$3,$4,$5,0*
20,1,$1+$1,$4,$5,$6,$7,0*
20,1,$1+$1,$6,$7,$8,$9,0*
20,1,$1+$1,$8,$9,$2,$3,0*%
G04 Aperture macros list end*
%TA.AperFunction,ComponentPad*%
%ADD10O,1.600000X1.600000*%
%TD*%
%TA.AperFunction,ComponentPad*%
%ADD11R,1.600000X1.600000*%
%TD*%
%TA.AperFunction,ComponentPad*%
%ADD12C,2.200000*%
%TD*%
%TA.AperFunction,SMDPad,CuDef*%
%ADD13RoundRect,0.500000X-0.500000X0.875000X-0.500000X-0.875000X0.500000X-0.875000X0.500000X0.875000X0*%
%TD*%
%TA.AperFunction,SMDPad,CuDef*%
%ADD14RoundRect,0.275000X0.975000X0.275000X-0.975000X0.275000X-0.975000X-0.275000X0.975000X-0.275000X0*%
%TD*%
%TA.AperFunction,SMDPad,CuDef*%
%ADD15C,1.700000*%
%TD*%
%TA.AperFunction,ViaPad*%
%ADD16C,0.600000*%
%TD*%
%TA.AperFunction,Conductor*%
%ADD17C,0.200000*%
%TD*%
G04 APERTURE END LIST*
D10*
%TO.P,D1,2,A*%
%TO.N,Net-(D1-A)*%
X57200000Y-52390000D03*
D11*
%TO.P,D1,1,K*%
%TO.N,ROW 1*%
X57200000Y-60010000D03*
%TD*%
D12*
%TO.P,SW1,2,2*%
%TO.N,Net-(D1-A)*%
X43650000Y-52540000D03*
%TO.P,SW1,1,1*%
%TO.N,COL 1*%
X50000000Y-50000000D03*
%TD*%
%TO.P,SW6,1,1*%
%TO.N,ROW 1*%
X90000000Y-70000000D03*
%TO.P,SW6,2,2*%
%TO.N,Net-(D6-A)*%
X83650000Y-72540000D03*
%TD*%
%TO.P,SW5,1,1*%
%TO.N,COL 1*%
X90000000Y-50000000D03*
%TO.P,SW5,2,2*%
%TO.N,Net-(D5-A)*%
X83650000Y-52540000D03*
%TD*%
%TO.P,SW4,1,1*%
%TO.N,ROW 1*%
X70000000Y-70000000D03*
%TO.P,SW4,2,2*%
%TO.N,Net-(D4-A)*%
X63650000Y-72540000D03*
%TD*%
%TO.P,SW3,1,1*%
%TO.N,COL 1*%
X70000000Y-50000000D03*
%TO.P,SW3,2,2*%
%TO.N,Net-(D3-A)*%
X63650000Y-52540000D03*
%TD*%
%TO.P,SW2,1,1*%
%TO.N,COL 2*%
X50000000Y-70000000D03*
%TO.P,SW2,2,2*%
%TO.N,Net-(D2-A)*%
X43650000Y-72540000D03*
%TD*%
D11*
%TO.P,D6,1,K*%
%TO.N,ROW 3*%
X96800000Y-70390000D03*
D10*
%TO.P,D6,2,A*%
%TO.N,Net-(D6-A)*%
X96800000Y-78010000D03*
%TD*%
D11*
%TO.P,D5,1,K*%
%TO.N,ROW 3*%
X96400000Y-52790000D03*
D10*
%TO.P,D5,2,A*%
%TO.N,Net-(D5-A)*%
X96400000Y-60410000D03*
%TD*%
D11*
%TO.P,D4,1,K*%
%TO.N,ROW 2*%
X77000000Y-69990000D03*
D10*
%TO.P,D4,2,A*%
%TO.N,Net-(D4-A)*%
X77000000Y-77610000D03*
%TD*%
D11*
%TO.P,D3,1,K*%
%TO.N,ROW 2*%
X76800000Y-52600000D03*
D10*
%TO.P,D3,2,A*%
%TO.N,Net-(D3-A)*%
X76800000Y-60220000D03*
%TD*%
D11*
%TO.P,D2,1,K*%
%TO.N,ROW 1*%
X57000000Y-71390000D03*
D10*
%TO.P,D2,2,A*%
%TO.N,Net-(D2-A)*%
X57000000Y-79010000D03*
%TD*%
D13*
%TO.P,U1,1,GPIO26_A0_D0*%
%TO.N,COL 1*%
X98689750Y-26804500D03*
%TO.P,U1,2,GPIO27_A1_D1*%
%TO.N,COL 2*%
X96149750Y-26804500D03*
%TO.P,U1,3,GPIO28_A2_D2*%
%TO.N,ROW 1*%
X93609750Y-26804500D03*
%TO.P,U1,4,GPIO29_A3_D3*%
%TO.N,ROW 2*%
X91069750Y-26804500D03*
%TO.P,U1,5,GPIO6_D4_SDA*%
%TO.N,ROW 3*%
X88529750Y-26804500D03*
%TO.P,U1,6,GPIO7_D5_SCL*%
%TO.N,unconnected-(U1-GPIO7_D5_SCL-Pad6)*%
X85989750Y-26804500D03*
%TO.P,U1,7,GPIO0_D6_TX*%
%TO.N,unconnected-(U1-GPIO0_D6_TX-Pad7)*%
X83449750Y-26804500D03*
%TO.P,U1,8,GPIO1_D7_CSn_RX*%
%TO.N,unconnected-(U1-GPIO1_D7_CSn_RX-Pad8)*%
X83449750Y-42969500D03*
%TO.P,U1,9,GPIO2_D8_SCK*%
%TO.N,unconnected-(U1-GPIO2_D8_SCK-Pad9)*%
X85989750Y-42969500D03*
%TO.P,U1,10,GPIO4_D9_MISO*%
%TO.N,unconnected-(U1-GPIO4_D9_MISO-Pad10)*%
X88529750Y-42969500D03*
%TO.P,U1,11,GPIO3_D10_MOSI*%
%TO.N,unconnected-(U1-GPIO3_D10_MOSI-Pad11)*%
X91069750Y-42969500D03*
%TO.P,U1,12,3V3*%
%TO.N,unconnected-(U1-3V3-Pad12)*%
X93609750Y-42969500D03*
%TO.P,U1,13,GND*%
%TO.N,GND*%
X96149750Y-42969500D03*
%TO.P,U1,14,5V*%
%TO.N,unconnected-(U1-5V-Pad14)*%
X98689750Y-42969500D03*
D14*
%TO.P,U1,15,BAT*%
%TO.N,unconnected-(U1-BAT-Pad15)*%
X82429750Y-33716500D03*
%TO.P,U1,16,GND*%
%TO.N,GND*%
X82429750Y-36256500D03*
D15*
%TO.P,U1,17,SWDIO*%
%TO.N,unconnected-(U1-SWDIO-Pad17)*%
X99447750Y-33716500D03*
%TO.P,U1,18,SWDCLK*%
%TO.N,unconnected-(U1-SWDCLK-Pad18)*%
X99447750Y-36256500D03*
%TO.P,U1,19,RST*%
%TO.N,unconnected-(U1-RST-Pad19)*%
X96907750Y-33716500D03*
%TO.P,U1,20,GND*%
%TO.N,GND*%
X96907750Y-36256500D03*
%TD*%
D16*
%TO.N,COL 1*%
X97000000Y-30600000D03*
%TO.N,ROW 1*%
X92600000Y-29200000D03*
%TO.N,COL 2*%
X78200000Y-44400000D03*
%TO.N,ROW 3*%
X89600000Y-29600000D03*
%TO.N,COL 1*%
X98000000Y-47400000D03*
%TO.N,ROW 1*%
X89400000Y-65600000D03*
%TO.N,COL 2*%
X55200000Y-67000000D03*
%TO.N,ROW 2*%
X78800000Y-68600000D03*
%TD*%
D17*
%TO.N,GND*%
X96149750Y-37014500D02*
X96907750Y-36256500D01*
X96149750Y-42969500D02*
X96149750Y-37014500D01*
%TO.N,COL 1*%
X98689750Y-28910250D02*
X97000000Y-30600000D01*
X98689750Y-26804500D02*
X98689750Y-28910250D01*
%TO.N,ROW 1*%
X93609750Y-28190250D02*
X92600000Y-29200000D01*
X93609750Y-26804500D02*
X93609750Y-28190250D01*
%TO.N,COL 2*%
X78354250Y-44554250D02*
X78200000Y-44400000D01*
X78400000Y-44554250D02*
X78354250Y-44554250D01*
X96149750Y-26804500D02*
X78400000Y-44554250D01*
%TO.N,ROW 2*%
X91069750Y-29730250D02*
X76800000Y-44000000D01*
X91069750Y-26804500D02*
X91069750Y-29730250D01*
X76800000Y-44000000D02*
X76800000Y-52600000D01*
%TO.N,ROW 3*%
X88529750Y-28529750D02*
X89600000Y-29600000D01*
X88529750Y-26804500D02*
X88529750Y-28529750D01*
%TO.N,COL 1*%
X92600000Y-47400000D02*
X90000000Y-50000000D01*
X98000000Y-47400000D02*
X92600000Y-47400000D01*
X73701000Y-53701000D02*
X70000000Y-50000000D01*
X77901000Y-53701000D02*
X73701000Y-53701000D01*
X81602000Y-50000000D02*
X77901000Y-53701000D01*
X90000000Y-50000000D02*
X81602000Y-50000000D01*
%TO.N,Net-(D3-A)*%
X68244816Y-52540000D02*
X63650000Y-52540000D01*
X75924816Y-60220000D02*
X68244816Y-52540000D01*
X76800000Y-60220000D02*
X75924816Y-60220000D01*
%TO.N,ROW 1*%
X90000000Y-66200000D02*
X89400000Y-65600000D01*
X90000000Y-70000000D02*
X90000000Y-66200000D01*
%TO.N,Net-(D5-A)*%
X88244816Y-52540000D02*
X83650000Y-52540000D01*
X96114816Y-60410000D02*
X88244816Y-52540000D01*
X96400000Y-60410000D02*
X96114816Y-60410000D01*
%TO.N,COL 2*%
X53000000Y-67000000D02*
X55200000Y-67000000D01*
X50000000Y-70000000D02*
X53000000Y-67000000D01*
%TO.N,ROW 2*%
X77410000Y-69990000D02*
X78800000Y-68600000D01*
X77000000Y-69990000D02*
X77410000Y-69990000D01*
%TO.N,ROW 1*%
X87800000Y-67800000D02*
X72200000Y-67800000D01*
X72200000Y-67800000D02*
X70000000Y-70000000D01*
X90000000Y-70000000D02*
X87800000Y-67800000D01*
X58390000Y-70000000D02*
X70000000Y-70000000D01*
X57000000Y-71390000D02*
X58390000Y-70000000D01*
%TO.N,Net-(D6-A)*%
X93771530Y-78010000D02*
X96800000Y-78010000D01*
X88301530Y-72540000D02*
X93771530Y-78010000D01*
X83650000Y-72540000D02*
X88301530Y-72540000D01*
%TO.N,Net-(D4-A)*%
X71930000Y-72540000D02*
X77000000Y-77610000D01*
X63650000Y-72540000D02*
X71930000Y-72540000D01*
%TO.N,Net-(D2-A)*%
X54771530Y-79010000D02*
X48301530Y-72540000D01*
X48301530Y-72540000D02*
X43650000Y-72540000D01*
X57000000Y-79010000D02*
X54771530Y-79010000D01*
%TO.N,ROW 1*%
X57200000Y-71190000D02*
X57000000Y-71390000D01*
X57200000Y-60010000D02*
X57200000Y-71190000D01*
%TO.N,Net-(D1-A)*%
X57050000Y-52540000D02*
X57200000Y-52390000D01*
X43650000Y-52540000D02*
X57050000Y-52540000D01*
%TO.N,COL 1*%
X50000000Y-50000000D02*
X70000000Y-50000000D01*
%TD*%
%TA.AperFunction,Conductor*%
%TO.N,GND*%
G36*
X97803032Y-23300648D02*
G01*
X98136929Y-23317052D01*
X98149037Y-23318245D01*
X98252146Y-23333539D01*
X98476699Y-23366849D01*
X98488617Y-23369219D01*
X98809951Y-23449709D01*
X98821588Y-23453240D01*
X98892806Y-23478722D01*
X99133467Y-23564832D01*
X99144688Y-23569479D01*
X99444163Y-23711120D01*
X99454871Y-23716844D01*
X99738988Y-23887137D01*
X99749106Y-23893897D01*
X100015170Y-24091224D01*
X100024576Y-24098944D01*
X100270013Y-24321395D01*
X100278604Y-24329986D01*
X100465755Y-24536475D01*
X100501055Y-24575423D01*
X100508775Y-24584829D01*
X100706102Y-24850893D01*
X100712862Y-24861011D01*
X100841776Y-25076092D01*
X100883148Y-25145116D01*
X100888883Y-25155844D01*
X100918465Y-25218391D01*
X101030514Y-25455297D01*
X101035170Y-25466540D01*
X101146759Y-25778411D01*
X101150292Y-25790055D01*
X101230777Y-26111369D01*
X101233151Y-26123305D01*
X101281754Y-26450962D01*
X101282947Y-26463071D01*
X101299351Y-26796966D01*
X101299500Y-26803051D01*
X101299500Y-85196948D01*
X101299351Y-85203033D01*
X101282947Y-85536928D01*
X101281754Y-85549037D01*
X101233151Y-85876694D01*
X101230777Y-85888630D01*
X101150292Y-86209944D01*
X101146759Y-86221588D01*
X101035170Y-86533459D01*
X101030514Y-86544702D01*
X100888885Y-86844151D01*
X100883148Y-86854883D01*
X100712862Y-87138988D01*
X100706102Y-87149106D01*
X100508775Y-87415170D01*
X100501055Y-87424576D01*
X100278611Y-87670006D01*
X100270006Y-87678611D01*
X100024576Y-87901055D01*
X100015170Y-87908775D01*
X99749106Y-88106102D01*
X99738988Y-88112862D01*
X99454883Y-88283148D01*
X99444151Y-88288885D01*
X99144702Y-88430514D01*
X99133459Y-88435170D01*
X98821588Y-88546759D01*
X98809944Y-88550292D01*
X98488630Y-88630777D01*
X98476694Y-88633151D01*
X98149037Y-88681754D01*
X98136928Y-88682947D01*
X97821989Y-88698419D01*
X97803031Y-88699351D01*
X97796949Y-88699500D01*
X37203051Y-88699500D01*
X37196968Y-88699351D01*
X37176900Y-88698365D01*
X36863071Y-88682947D01*
X36850962Y-88681754D01*
X36523305Y-88633151D01*
X36511369Y-88630777D01*
X36190055Y-88550292D01*
X36178411Y-88546759D01*
X35866540Y-88435170D01*
X35855301Y-88430515D01*
X35555844Y-88288883D01*
X35545121Y-88283150D01*
X35261011Y-88112862D01*
X35250893Y-88106102D01*
X34984829Y-87908775D01*
X34975423Y-87901055D01*
X34936475Y-87865755D01*
X34729986Y-87678604D01*
X34721395Y-87670013D01*
X34498944Y-87424576D01*
X34491224Y-87415170D01*
X34293897Y-87149106D01*
X34287137Y-87138988D01*
X34116844Y-86854871D01*
X34111120Y-86844163D01*
X33969479Y-86544688D01*
X33964829Y-86533459D01*
X33939699Y-86463226D01*
X33868138Y-86263226D01*
X33853240Y-86221588D01*
X33849707Y-86209944D01*
X33845780Y-86194265D01*
X33769219Y-85888617D01*
X33766848Y-85876694D01*
X33758844Y-85822738D01*
X33730298Y-85630293D01*
X33718245Y-85549037D01*
X33717052Y-85536927D01*
X33700649Y-85203032D01*
X33700500Y-85196948D01*
X33700500Y-84478711D01*
X36149500Y-84478711D01*
X36149500Y-84721288D01*
X36181161Y-84961785D01*
X36243947Y-85196104D01*
X36336773Y-85420205D01*
X36336776Y-85420212D01*
X36458064Y-85630289D01*
X36458066Y-85630292D01*
X36458067Y-85630293D01*
X36605733Y-85822736D01*
X36605739Y-85822743D01*
X36777256Y-85994260D01*
X36777262Y-85994265D01*
X36969711Y-86141936D01*
X37179788Y-86263224D01*
X37403900Y-86356054D01*
X37638211Y-86418838D01*
X37818586Y-86442584D01*
X37878711Y-86450500D01*
X37878712Y-86450500D01*
X38121289Y-86450500D01*
X38169388Y-86444167D01*
X38361789Y-86418838D01*
X38596100Y-86356054D01*
X38820212Y-86263224D01*
X39030289Y-86141936D01*
X39222738Y-85994265D01*
X39394265Y-85822738D01*
X39541936Y-85630289D01*
X39663224Y-85420212D01*
X39756054Y-85196100D01*
X39818838Y-84961789D01*
X39850500Y-84721288D01*
X39850500Y-84678711D01*
X95349500Y-84678711D01*
X95349500Y-84921288D01*
X95381161Y-85161785D01*
X95443947Y-85396104D01*
X95504798Y-85543011D01*
X95536776Y-85620212D01*
X95658064Y-85830289D01*
X95658066Y-85830292D01*
X95658067Y-85830293D01*
X95805733Y-86022736D01*
X95805739Y-86022743D01*
X95977256Y-86194260D01*
X95977262Y-86194265D01*
X96169711Y-86341936D01*
X96379788Y-86463224D01*
X96603900Y-86556054D01*
X96838211Y-86618838D01*
X97018586Y-86642584D01*
X97078711Y-86650500D01*
X97078712Y-86650500D01*
X97321289Y-86650500D01*
X97369388Y-86644167D01*
X97561789Y-86618838D01*
X97796100Y-86556054D01*
X98020212Y-86463224D01*
X98230289Y-86341936D01*
X98422738Y-86194265D01*
X98594265Y-86022738D01*
X98741936Y-85830289D01*
X98863224Y-85620212D01*
X98956054Y-85396100D01*
X99018838Y-85161789D01*
X99050500Y-84921288D01*
X99050500Y-84678712D01*
X99018838Y-84438211D01*
X98956054Y-84203900D01*
X98863224Y-83979788D01*
X98741936Y-83769711D01*
X98594265Y-83577262D01*
X98594260Y-83577256D01*
X98422743Y-83405739D01*
X98422736Y-83405733D01*
X98230293Y-83258067D01*
X98230292Y-83258066D01*
X98230289Y-83258064D01*
X98020212Y-83136776D01*
X98020205Y-83136773D01*
X97796104Y-83043947D01*
X97561785Y-82981161D01*
X97321289Y-82949500D01*
X97321288Y-82949500D01*
X97078712Y-82949500D01*
X97078711Y-82949500D01*
X96838214Y-82981161D01*
X96603895Y-83043947D01*
X96379794Y-83136773D01*
X96379785Y-83136777D01*
X96169706Y-83258067D01*
X95977263Y-83405733D01*
X95977256Y-83405739D01*
X95805739Y-83577256D01*
X95805733Y-83577263D01*
X95658067Y-83769706D01*
X95536777Y-83979785D01*
X95536773Y-83979794D01*
X95443947Y-84203895D01*
X95381161Y-84438214D01*
X95349500Y-84678711D01*
X39850500Y-84678711D01*
X39850500Y-84478712D01*
X39818838Y-84238211D01*
X39756054Y-84003900D01*
X39663224Y-83779788D01*
X39541936Y-83569711D01*
X39394265Y-83377262D01*
X39394260Y-83377256D01*
X39222743Y-83205739D01*
X39222736Y-83205733D01*
X39030293Y-83058067D01*
X39030292Y-83058066D01*
X39030289Y-83058064D01*
X38820212Y-82936776D01*
X38820205Y-82936773D01*
X38596104Y-82843947D01*
X38361785Y-82781161D01*
X38121289Y-82749500D01*
X38121288Y-82749500D01*
X37878712Y-82749500D01*
X37878711Y-82749500D01*
X37638214Y-82781161D01*
X37403895Y-82843947D01*
X37179794Y-82936773D01*
X37179785Y-82936777D01*
X36969706Y-83058067D01*
X36777263Y-83205733D01*
X36777256Y-83205739D01*
X36605739Y-83377256D01*
X36605733Y-83377263D01*
X36458067Y-83569706D01*
X36458064Y-83569710D01*
X36458064Y-83569711D01*
X36453704Y-83577263D01*
X36336777Y-83779785D01*
X36336773Y-83779794D01*
X36243947Y-84003895D01*
X36181161Y-84238214D01*
X36149500Y-84478711D01*
X33700500Y-84478711D01*
X33700500Y-74993389D01*
X41279500Y-74993389D01*
X41279500Y-75166610D01*
X41297250Y-75278684D01*
X41306598Y-75337701D01*
X41360127Y-75502445D01*
X41438768Y-75656788D01*
X41540586Y-75796928D01*
X41663072Y-75919414D01*
X41803212Y-76021232D01*
X41957555Y-76099873D01*
X42122299Y-76153402D01*
X42293389Y-76180500D01*
X42293390Y-76180500D01*
X42466610Y-76180500D01*
X42466611Y-76180500D01*
X42637701Y-76153402D01*
X42802445Y-76099873D01*
X42956788Y-76021232D01*
X43096928Y-75919414D01*
X43219414Y-75796928D01*
X43321232Y-75656788D01*
X43399873Y-75502445D01*
X43453402Y-75337701D01*
X43480500Y-75166611D01*
X43480500Y-74993389D01*
X43453402Y-74822299D01*
X43399873Y-74657555D01*
X43321232Y-74503212D01*
X43219414Y-74363072D01*
X43167482Y-74311140D01*
X43133997Y-74249817D01*
X43138981Y-74180125D01*
X43180853Y-74124192D01*
X43246317Y-74099775D01*
X43274561Y-74100986D01*
X43275212Y-74101089D01*
X43275215Y-74101090D01*
X43524038Y-74140500D01*
X43524039Y-74140500D01*
X43775961Y-74140500D01*
X43775962Y-74140500D01*
X44024785Y-74101090D01*
X44264379Y-74023241D01*
X44488845Y-73908870D01*
X44692656Y-73760793D01*
X44870793Y-73582656D01*
X45018870Y-73378845D01*
X45105815Y-73208204D01*
X45153789Y-73157409D01*
X45216300Y-73140500D01*
X45925462Y-73140500D01*
X45992501Y-73160185D01*
X46038256Y-73212989D01*
X46048200Y-73282147D01*
X46019175Y-73345703D01*
X46000948Y-73362876D01*
X45972959Y-73384352D01*
X45972952Y-73384358D01*
X45764358Y-73592952D01*
X45764352Y-73592959D01*
X45584761Y-73827006D01*
X45437258Y-74082489D01*
X45437254Y-74082499D01*
X45324364Y-74355038D01*
X45324361Y-74355048D01*
X45248008Y-74640004D01*
X45248006Y-74640015D01*
X45209500Y-74932486D01*
X45209500Y-75227513D01*
X45241571Y-75471113D01*
X45248007Y-75519993D01*
X45322212Y-75796930D01*
X45324361Y-75804951D01*
X45324364Y-75804961D01*
X45437254Y-76077500D01*
X45437258Y-76077510D01*
X45584761Y-76332993D01*
X45764352Y-76567040D01*
X45764358Y-76567047D01*
X45972952Y-76775641D01*
X45972959Y-76775647D01*
X46207006Y-76955238D01*
X46462489Y-77102741D01*
X46462490Y-77102741D01*
X46462493Y-77102743D01*
X46735048Y-77215639D01*
X47020007Y-77291993D01*
X47312494Y-77330500D01*
X47312501Y-77330500D01*
X47607499Y-77330500D01*
X47607506Y-77330500D01*
X47899993Y-77291993D01*
X48184952Y-77215639D01*
X48457507Y-77102743D01*
X48712994Y-76955238D01*
X48947042Y-76775646D01*
X49155646Y-76567042D01*
X49335238Y-76332994D01*
X49482743Y-76077507D01*
X49595639Y-75804952D01*
X49671993Y-75519993D01*
X49710500Y-75227506D01*
X49710500Y-75097567D01*
X49730185Y-75030529D01*
X49782989Y-74984774D01*
X49852147Y-74974830D01*
X49915703Y-75003855D01*
X49922180Y-75009886D01*
X54402814Y-79490520D01*
X54402816Y-79490521D01*
X54402820Y-79490524D01*
X54539739Y-79569573D01*
X54539746Y-79569577D01*
X54692473Y-79610501D01*
X54692475Y-79610501D01*
X54858184Y-79610501D01*
X54858200Y-79610500D01*
X55770398Y-79610500D01*
X55837437Y-79630185D01*
X55880883Y-79678205D01*
X55887715Y-79691614D01*
X56008028Y-79857213D01*
X56152786Y-80001971D01*
X56307749Y-80114556D01*
X56318390Y-80122287D01*
X56434607Y-80181503D01*
X56500776Y-80215218D01*
X56500778Y-80215218D01*
X56500781Y-80215220D01*
X56605137Y-80249127D01*
X56695465Y-80278477D01*
X56796557Y-80294488D01*
X56897648Y-80310500D01*
X56897649Y-80310500D01*
X57102351Y-80310500D01*
X57102352Y-80310500D01*
X57304534Y-80278477D01*
X57499219Y-80215220D01*
X57681610Y-80122287D01*
X57774590Y-80054732D01*
X57847213Y-80001971D01*
X57847215Y-80001968D01*
X57847219Y-80001966D01*
X57991966Y-79857219D01*
X57991968Y-79857215D01*
X57991971Y-79857213D01*
X58044732Y-79784590D01*
X58112287Y-79691610D01*
X58205220Y-79509219D01*
X58268477Y-79314534D01*
X58300500Y-79112352D01*
X58300500Y-78907648D01*
X58268477Y-78705466D01*
X58259619Y-78678205D01*
X58205218Y-78510776D01*
X58171503Y-78444607D01*
X58112287Y-78328390D01*
X58085565Y-78291610D01*
X57991971Y-78162786D01*
X57847213Y-78018028D01*
X57681613Y-77897715D01*
X57681612Y-77897714D01*
X57681610Y-77897713D01*
X57624653Y-77868691D01*
X57499223Y-77804781D01*
X57304534Y-77741522D01*
X57129995Y-77713878D01*
X57102352Y-77709500D01*
X56897648Y-77709500D01*
X56873329Y-77713351D01*
X56695465Y-77741522D01*
X56500776Y-77804781D01*
X56318386Y-77897715D01*
X56152786Y-78018028D01*
X56008028Y-78162786D01*
X55887715Y-78328385D01*
X55880883Y-78341795D01*
X55832909Y-78392591D01*
X55770398Y-78409500D01*
X55071628Y-78409500D01*
X55004589Y-78389815D01*
X54983947Y-78373181D01*
X52915473Y-76304707D01*
X52881988Y-76243384D01*
X52886972Y-76173692D01*
X52928844Y-76117759D01*
X52958271Y-76102505D01*
X52957952Y-76101734D01*
X52962435Y-76099876D01*
X52962445Y-76099873D01*
X53116788Y-76021232D01*
X53256928Y-75919414D01*
X53379414Y-75796928D01*
X53481232Y-75656788D01*
X53559873Y-75502445D01*
X53613402Y-75337701D01*
X53640500Y-75166611D01*
X53640500Y-74993389D01*
X61279500Y-74993389D01*
X61279500Y-75166610D01*
X61297250Y-75278684D01*
X61306598Y-75337701D01*
X61360127Y-75502445D01*
X61438768Y-75656788D01*
X61540586Y-75796928D01*
X61663072Y-75919414D01*
X61803212Y-76021232D01*
X61957555Y-76099873D01*
X62122299Y-76153402D01*
X62293389Y-76180500D01*
X62293390Y-76180500D01*
X62466610Y-76180500D01*
X62466611Y-76180500D01*
X62637701Y-76153402D01*
X62802445Y-76099873D01*
X62956788Y-76021232D01*
X63096928Y-75919414D01*
X63219414Y-75796928D01*
X63321232Y-75656788D01*
X63399873Y-75502445D01*
X63453402Y-75337701D01*
X63480500Y-75166611D01*
X63480500Y-74993389D01*
X63453402Y-74822299D01*
X63399873Y-74657555D01*
X63321232Y-74503212D01*
X63219414Y-74363072D01*
X63167482Y-74311140D01*
X63133997Y-74249817D01*
X63138981Y-74180125D01*
X63180853Y-74124192D01*
X63246317Y-74099775D01*
X63274561Y-74100986D01*
X63275212Y-74101089D01*
X63275215Y-74101090D01*
X63524038Y-74140500D01*
X63524039Y-74140500D01*
X63775961Y-74140500D01*
X63775962Y-74140500D01*
X64024785Y-74101090D01*
X64264379Y-74023241D01*
X64488845Y-73908870D01*
X64692656Y-73760793D01*
X64870793Y-73582656D01*
X65018870Y-73378845D01*
X65105815Y-73208204D01*
X65153789Y-73157409D01*
X65216300Y-73140500D01*
X65925462Y-73140500D01*
X65992501Y-73160185D01*
X66038256Y-73212989D01*
X66048200Y-73282147D01*
X66019175Y-73345703D01*
X66000948Y-73362876D01*
X65972959Y-73384352D01*
X65972952Y-73384358D01*
X65764358Y-73592952D01*
X65764352Y-73592959D01*
X65584761Y-73827006D01*
X65437258Y-74082489D01*
X65437254Y-74082499D01*
X65324364Y-74355038D01*
X65324361Y-74355048D01*
X65248008Y-74640004D01*
X65248006Y-74640015D01*
X65209500Y-74932486D01*
X65209500Y-75227513D01*
X65241571Y-75471113D01*
X65248007Y-75519993D01*
X65322212Y-75796930D01*
X65324361Y-75804951D01*
X65324364Y-75804961D01*
X65437254Y-76077500D01*
X65437258Y-76077510D01*
X65584761Y-76332993D01*
X65764352Y-76567040D01*
X65764358Y-76567047D01*
X65972952Y-76775641D01*
X65972959Y-76775647D01*
X66207006Y-76955238D01*
X66462489Y-77102741D01*
X66462490Y-77102741D01*
X66462493Y-77102743D01*
X66735048Y-77215639D01*
X67020007Y-77291993D01*
X67312494Y-77330500D01*
X67312501Y-77330500D01*
X67607499Y-77330500D01*
X67607506Y-77330500D01*
X67899993Y-77291993D01*
X68184952Y-77215639D01*
X68457507Y-77102743D01*
X68712994Y-76955238D01*
X68947042Y-76775646D01*
X69155646Y-76567042D01*
X69335238Y-76332994D01*
X69482743Y-76077507D01*
X69595639Y-75804952D01*
X69671993Y-75519993D01*
X69710500Y-75227506D01*
X69710500Y-74932494D01*
X69671993Y-74640007D01*
X69595639Y-74355048D01*
X69482743Y-74082493D01*
X69427309Y-73986479D01*
X69335238Y-73827006D01*
X69155647Y-73592959D01*
X69155641Y-73592952D01*
X68947047Y-73384358D01*
X68947040Y-73384352D01*
X68919052Y-73362876D01*
X68877849Y-73306448D01*
X68873694Y-73236702D01*
X68907906Y-73175782D01*
X68969624Y-73143029D01*
X68994538Y-73140500D01*
X71629903Y-73140500D01*
X71696942Y-73160185D01*
X71717584Y-73176819D01*
X72339481Y-73798716D01*
X72372966Y-73860039D01*
X72367982Y-73929731D01*
X72326110Y-73985664D01*
X72286642Y-74004202D01*
X72286932Y-74005093D01*
X72282301Y-74006597D01*
X72282299Y-74006598D01*
X72231084Y-74023239D01*
X72117552Y-74060128D01*
X71963211Y-74138768D01*
X71906289Y-74180125D01*
X71823072Y-74240586D01*
X71823070Y-74240588D01*
X71823069Y-74240588D01*
X71700588Y-74363069D01*
X71700588Y-74363070D01*
X71700586Y-74363072D01*
X71656859Y-74423256D01*
X71598768Y-74503211D01*
X71520128Y-74657552D01*
X71466597Y-74822302D01*
X71439500Y-74993389D01*
X71439500Y-75166610D01*
X71457250Y-75278684D01*
X71466598Y-75337701D01*
X71520127Y-75502445D01*
X71598768Y-75656788D01*
X71700586Y-75796928D01*
X71823072Y-75919414D01*
X71963212Y-76021232D01*
X72117555Y-76099873D01*
X72282299Y-76153402D01*
X72453389Y-76180500D01*
X72453390Y-76180500D01*
X72626610Y-76180500D01*
X72626611Y-76180500D01*
X72797701Y-76153402D01*
X72962445Y-76099873D01*
X73116788Y-76021232D01*
X73256928Y-75919414D01*
X73379414Y-75796928D01*
X73481232Y-75656788D01*
X73559873Y-75502445D01*
X73613402Y-75337701D01*
X73613403Y-75337697D01*
X73614907Y-75333068D01*
X73616323Y-75333528D01*
X73647795Y-75278684D01*
X73709813Y-75246503D01*
X73779384Y-75252961D01*
X73821283Y-75280519D01*
X75705921Y-77165157D01*
X75739406Y-77226480D01*
X75736173Y-77291149D01*
X75731523Y-77305460D01*
X75731523Y-77305462D01*
X75699500Y-77507648D01*
X75699500Y-77712351D01*
X75731522Y-77914534D01*
X75794781Y-78109223D01*
X75887715Y-78291613D01*
X76008028Y-78457213D01*
X76152786Y-78601971D01*
X76276172Y-78691614D01*
X76318390Y-78722287D01*
X76434607Y-78781503D01*
X76500776Y-78815218D01*
X76500778Y-78815218D01*
X76500781Y-78815220D01*
X76605137Y-78849127D01*
X76695465Y-78878477D01*
X76796557Y-78894488D01*
X76897648Y-78910500D01*
X76897649Y-78910500D01*
X77102351Y-78910500D01*
X77102352Y-78910500D01*
X77304534Y-78878477D01*
X77499219Y-78815220D01*
X77681610Y-78722287D01*
X77808379Y-78630185D01*
X77847213Y-78601971D01*
X77847215Y-78601968D01*
X77847219Y-78601966D01*
X77991966Y-78457219D01*
X77991968Y-78457215D01*
X77991971Y-78457213D01*
X78053023Y-78373181D01*
X78112287Y-78291610D01*
X78205220Y-78109219D01*
X78268477Y-77914534D01*
X78300500Y-77712352D01*
X78300500Y-77507648D01*
X78284955Y-77409500D01*
X78268477Y-77305465D01*
X78205218Y-77110776D01*
X78157960Y-77018028D01*
X78112287Y-76928390D01*
X78104556Y-76917749D01*
X77991971Y-76762786D01*
X77847213Y-76618028D01*
X77681613Y-76497715D01*
X77681612Y-76497714D01*
X77681610Y-76497713D01*
X77624653Y-76468691D01*
X77499223Y-76404781D01*
X77304534Y-76341522D01*
X77129995Y-76313878D01*
X77102352Y-76309500D01*
X76897648Y-76309500D01*
X76857211Y-76315904D01*
X76695462Y-76341523D01*
X76695460Y-76341523D01*
X76681149Y-76346173D01*
X76611308Y-76348164D01*
X76555157Y-76315921D01*
X75315434Y-75076198D01*
X75232625Y-74993389D01*
X81279500Y-74993389D01*
X81279500Y-75166610D01*
X81297250Y-75278684D01*
X81306598Y-75337701D01*
X81360127Y-75502445D01*
X81438768Y-75656788D01*
X81540586Y-75796928D01*
X81663072Y-75919414D01*
X81803212Y-76021232D01*
X81957555Y-76099873D01*
X82122299Y-76153402D01*
X82293389Y-76180500D01*
X82293390Y-76180500D01*
X82466610Y-76180500D01*
X82466611Y-76180500D01*
X82637701Y-76153402D01*
X82802445Y-76099873D01*
X82956788Y-76021232D01*
X83096928Y-75919414D01*
X83219414Y-75796928D01*
X83321232Y-75656788D01*
X83399873Y-75502445D01*
X83453402Y-75337701D01*
X83480500Y-75166611D01*
X83480500Y-74993389D01*
X83453402Y-74822299D01*
X83399873Y-74657555D01*
X83321232Y-74503212D01*
X83219414Y-74363072D01*
X83167482Y-74311140D01*
X83133997Y-74249817D01*
X83138981Y-74180125D01*
X83180853Y-74124192D01*
X83246317Y-74099775D01*
X83274561Y-74100986D01*
X83275212Y-74101089D01*
X83275215Y-74101090D01*
X83524038Y-74140500D01*
X83524039Y-74140500D01*
X83775961Y-74140500D01*
X83775962Y-74140500D01*
X84024785Y-74101090D01*
X84264379Y-74023241D01*
X84488845Y-73908870D01*
X84692656Y-73760793D01*
X84870793Y-73582656D01*
X85018870Y-73378845D01*
X85105815Y-73208204D01*
X85153789Y-73157409D01*
X85216300Y-73140500D01*
X85925462Y-73140500D01*
X85992501Y-73160185D01*
X86038256Y-73212989D01*
X86048200Y-73282147D01*
X86019175Y-73345703D01*
X86000948Y-73362876D01*
X85972959Y-73384352D01*
X85972952Y-73384358D01*
X85764358Y-73592952D01*
X85764352Y-73592959D01*
X85584761Y-73827006D01*
X85437258Y-74082489D01*
X85437254Y-74082499D01*
X85324364Y-74355038D01*
X85324361Y-74355048D01*
X85248008Y-74640004D01*
X85248006Y-74640015D01*
X85209500Y-74932486D01*
X85209500Y-75227513D01*
X85241571Y-75471113D01*
X85248007Y-75519993D01*
X85322212Y-75796930D01*
X85324361Y-75804951D01*
X85324364Y-75804961D01*
X85437254Y-76077500D01*
X85437258Y-76077510D01*
X85584761Y-76332993D01*
X85764352Y-76567040D01*
X85764358Y-76567047D01*
X85972952Y-76775641D01*
X85972959Y-76775647D01*
X86207006Y-76955238D01*
X86462489Y-77102741D01*
X86462490Y-77102741D01*
X86462493Y-77102743D01*
X86735048Y-77215639D01*
X87020007Y-77291993D01*
X87312494Y-77330500D01*
X87312501Y-77330500D01*
X87607499Y-77330500D01*
X87607506Y-77330500D01*
X87899993Y-77291993D01*
X88184952Y-77215639D01*
X88457507Y-77102743D01*
X88712994Y-76955238D01*
X88947042Y-76775646D01*
X89155646Y-76567042D01*
X89335238Y-76332994D01*
X89482743Y-76077507D01*
X89595639Y-75804952D01*
X89671993Y-75519993D01*
X89710500Y-75227506D01*
X89710500Y-75097567D01*
X89730185Y-75030528D01*
X89782989Y-74984773D01*
X89852147Y-74974829D01*
X89915703Y-75003854D01*
X89922181Y-75009886D01*
X93286669Y-78374374D01*
X93286679Y-78374385D01*
X93291009Y-78378715D01*
X93291010Y-78378716D01*
X93402814Y-78490520D01*
X93489625Y-78540639D01*
X93489627Y-78540641D01*
X93527681Y-78562611D01*
X93539745Y-78569577D01*
X93692473Y-78610500D01*
X93850587Y-78610500D01*
X95570398Y-78610500D01*
X95637437Y-78630185D01*
X95680883Y-78678205D01*
X95687715Y-78691614D01*
X95808028Y-78857213D01*
X95952786Y-79001971D01*
X96107749Y-79114556D01*
X96118390Y-79122287D01*
X96234607Y-79181503D01*
X96300776Y-79215218D01*
X96300778Y-79215218D01*
X96300781Y-79215220D01*
X96405137Y-79249127D01*
X96495465Y-79278477D01*
X96596557Y-79294488D01*
X96697648Y-79310500D01*
X96697649Y-79310500D01*
X96902351Y-79310500D01*
X96902352Y-79310500D01*
X97104534Y-79278477D01*
X97299219Y-79215220D01*
X97481610Y-79122287D01*
X97574590Y-79054732D01*
X97647213Y-79001971D01*
X97647215Y-79001968D01*
X97647219Y-79001966D01*
X97791966Y-78857219D01*
X97791968Y-78857215D01*
X97791971Y-78857213D01*
X97844732Y-78784590D01*
X97912287Y-78691610D01*
X98005220Y-78509219D01*
X98068477Y-78314534D01*
X98100500Y-78112352D01*
X98100500Y-77907648D01*
X98069568Y-77712352D01*
X98068477Y-77705465D01*
X98005218Y-77510776D01*
X97971503Y-77444607D01*
X97912287Y-77328390D01*
X97832731Y-77218889D01*
X97791971Y-77162786D01*
X97647213Y-77018028D01*
X97481613Y-76897715D01*
X97481612Y-76897714D01*
X97481610Y-76897713D01*
X97424653Y-76868691D01*
X97299223Y-76804781D01*
X97104534Y-76741522D01*
X96929995Y-76713878D01*
X96902352Y-76709500D01*
X96697648Y-76709500D01*
X96673329Y-76713351D01*
X96495465Y-76741522D01*
X96300776Y-76804781D01*
X96118386Y-76897715D01*
X95952786Y-77018028D01*
X95808028Y-77162786D01*
X95687715Y-77328385D01*
X95680883Y-77341795D01*
X95632909Y-77392591D01*
X95570398Y-77409500D01*
X94071627Y-77409500D01*
X94004588Y-77389815D01*
X93983946Y-77373181D01*
X92915472Y-76304707D01*
X92881987Y-76243384D01*
X92886971Y-76173692D01*
X92928843Y-76117759D01*
X92958272Y-76102506D01*
X92957952Y-76101734D01*
X92962435Y-76099876D01*
X92962445Y-76099873D01*
X93116788Y-76021232D01*
X93256928Y-75919414D01*
X93379414Y-75796928D01*
X93481232Y-75656788D01*
X93559873Y-75502445D01*
X93613402Y-75337701D01*
X93640500Y-75166611D01*
X93640500Y-74993389D01*
X93613402Y-74822299D01*
X93559873Y-74657555D01*
X93481232Y-74503212D01*
X93379414Y-74363072D01*
X93256928Y-74240586D01*
X93116788Y-74138768D01*
X92962445Y-74060127D01*
X92797701Y-74006598D01*
X92797699Y-74006597D01*
X92797698Y-74006597D01*
X92665529Y-73985664D01*
X92626611Y-73979500D01*
X92453389Y-73979500D01*
X92414471Y-73985664D01*
X92282302Y-74006597D01*
X92117552Y-74060128D01*
X91963211Y-74138768D01*
X91906289Y-74180125D01*
X91823072Y-74240586D01*
X91823070Y-74240588D01*
X91823069Y-74240588D01*
X91700588Y-74363069D01*
X91700588Y-74363070D01*
X91700586Y-74363072D01*
X91656859Y-74423256D01*
X91598768Y-74503211D01*
X91520126Y-74657556D01*
X91518266Y-74662048D01*
X91516655Y-74661381D01*
X91481459Y-74712846D01*
X91417098Y-74740039D01*
X91348252Y-74728119D01*
X91315292Y-74704527D01*
X88789120Y-72178355D01*
X88789118Y-72178352D01*
X88670247Y-72059481D01*
X88670239Y-72059475D01*
X88550771Y-71990501D01*
X88550768Y-71990500D01*
X88533315Y-71980423D01*
X88380587Y-71939499D01*
X88222473Y-71939499D01*
X88214877Y-71939499D01*
X88214861Y-71939500D01*
X85216300Y-71939500D01*
X85149261Y-71919815D01*
X85105815Y-71871795D01*
X85018870Y-71701155D01*
X84917107Y-71561090D01*
X84870798Y-71497350D01*
X84870794Y-71497345D01*
X84692654Y-71319205D01*
X84692649Y-71319201D01*
X84488848Y-71171132D01*
X84488847Y-71171131D01*
X84488845Y-71171130D01*
X84418747Y-71135413D01*
X84264383Y-71056760D01*
X84024785Y-70978910D01*
X83775962Y-70939500D01*
X83524038Y-70939500D01*
X83399626Y-70959205D01*
X83275214Y-70978910D01*
X83035616Y-71056760D01*
X82811151Y-71171132D01*
X82607350Y-71319201D01*
X82607345Y-71319205D01*
X82429205Y-71497345D01*
X82429201Y-71497350D01*
X82281132Y-71701151D01*
X82166760Y-71925616D01*
X82088910Y-72165214D01*
X82077400Y-72237883D01*
X82049500Y-72414038D01*
X82049500Y-72665962D01*
X82088910Y-72914785D01*
X82166760Y-73154383D01*
X82231860Y-73282147D01*
X82272993Y-73362876D01*
X82281132Y-73378848D01*
X82429201Y-73582649D01*
X82429205Y-73582654D01*
X82429207Y-73582656D01*
X82607344Y-73760793D01*
X82607345Y-73760794D01*
X82607344Y-73760794D01*
X82613661Y-73765383D01*
X82656327Y-73820714D01*
X82662305Y-73890327D01*
X82629699Y-73952122D01*
X82568860Y-73986479D01*
X82521378Y-73988174D01*
X82466611Y-73979500D01*
X82293389Y-73979500D01*
X82254471Y-73985664D01*
X82122302Y-74006597D01*
X81957552Y-74060128D01*
X81803211Y-74138768D01*
X81746289Y-74180125D01*
X81663072Y-74240586D01*
X81663070Y-74240588D01*
X81663069Y-74240588D01*
X81540588Y-74363069D01*
X81540588Y-74363070D01*
X81540586Y-74363072D01*
X81496859Y-74423256D01*
X81438768Y-74503211D01*
X81360128Y-74657552D01*
X81306597Y-74822302D01*
X81279500Y-74993389D01*
X75232625Y-74993389D01*
X72417590Y-72178355D01*
X72417588Y-72178352D01*
X72298717Y-72059481D01*
X72298709Y-72059475D01*
X72179241Y-71990501D01*
X72179238Y-71990500D01*
X72161785Y-71980423D01*
X72009057Y-71939499D01*
X71850943Y-71939499D01*
X71843347Y-71939499D01*
X71843331Y-71939500D01*
X65216300Y-71939500D01*
X65149261Y-71919815D01*
X65105815Y-71871795D01*
X65018870Y-71701155D01*
X64917107Y-71561090D01*
X64870798Y-71497350D01*
X64870794Y-71497345D01*
X64692654Y-71319205D01*
X64692649Y-71319201D01*
X64488848Y-71171132D01*
X64488847Y-71171131D01*
X64488845Y-71171130D01*
X64418747Y-71135413D01*
X64264383Y-71056760D01*
X64024785Y-70978910D01*
X63775962Y-70939500D01*
X63524038Y-70939500D01*
X63399626Y-70959205D01*
X63275214Y-70978910D01*
X63035616Y-71056760D01*
X62811151Y-71171132D01*
X62607350Y-71319201D01*
X62607345Y-71319205D01*
X62429205Y-71497345D01*
X62429201Y-71497350D01*
X62281132Y-71701151D01*
X62166760Y-71925616D01*
X62088910Y-72165214D01*
X62077400Y-72237883D01*
X62049500Y-72414038D01*
X62049500Y-72665962D01*
X62088910Y-72914785D01*
X62166760Y-73154383D01*
X62231860Y-73282147D01*
X62272993Y-73362876D01*
X62281132Y-73378848D01*
X62429201Y-73582649D01*
X62429205Y-73582654D01*
X62429207Y-73582656D01*
X62607344Y-73760793D01*
X62607345Y-73760794D01*
X62607344Y-73760794D01*
X62613661Y-73765383D01*
X62656327Y-73820714D01*
X62662305Y-73890327D01*
X62629699Y-73952122D01*
X62568860Y-73986479D01*
X62521378Y-73988174D01*
X62466611Y-73979500D01*
X62293389Y-73979500D01*
X62254471Y-73985664D01*
X62122302Y-74006597D01*
X61957552Y-74060128D01*
X61803211Y-74138768D01*
X61746289Y-74180125D01*
X61663072Y-74240586D01*
X61663070Y-74240588D01*
X61663069Y-74240588D01*
X61540588Y-74363069D01*
X61540588Y-74363070D01*
X61540586Y-74363072D01*
X61496859Y-74423256D01*
X61438768Y-74503211D01*
X61360128Y-74657552D01*
X61306597Y-74822302D01*
X61279500Y-74993389D01*
X53640500Y-74993389D01*
X53613402Y-74822299D01*
X53559873Y-74657555D01*
X53481232Y-74503212D01*
X53379414Y-74363072D01*
X53256928Y-74240586D01*
X53116788Y-74138768D01*
X52962445Y-74060127D01*
X52797701Y-74006598D01*
X52797699Y-74006597D01*
X52797698Y-74006597D01*
X52665529Y-73985664D01*
X52626611Y-73979500D01*
X52453389Y-73979500D01*
X52414471Y-73985664D01*
X52282302Y-74006597D01*
X52117552Y-74060128D01*
X51963211Y-74138768D01*
X51906289Y-74180125D01*
X51823072Y-74240586D01*
X51823070Y-74240588D01*
X51823069Y-74240588D01*
X51700588Y-74363069D01*
X51700588Y-74363070D01*
X51700586Y-74363072D01*
X51656859Y-74423256D01*
X51598768Y-74503211D01*
X51520126Y-74657556D01*
X51518266Y-74662048D01*
X51516655Y-74661381D01*
X51481459Y-74712846D01*
X51417098Y-74740039D01*
X51348252Y-74728119D01*
X51315292Y-74704527D01*
X48789120Y-72178355D01*
X48789118Y-72178352D01*
X48670247Y-72059481D01*
X48670239Y-72059475D01*
X48550771Y-71990501D01*
X48550768Y-71990500D01*
X48533315Y-71980423D01*
X48380587Y-71939499D01*
X48222473Y-71939499D01*
X48214877Y-71939499D01*
X48214861Y-71939500D01*
X45216300Y-71939500D01*
X45149261Y-71919815D01*
X45105815Y-71871795D01*
X45018870Y-71701155D01*
X44917107Y-71561090D01*
X44870798Y-71497350D01*
X44870794Y-71497345D01*
X44692654Y-71319205D01*
X44692649Y-71319201D01*
X44488848Y-71171132D01*
X44488847Y-71171131D01*
X44488845Y-71171130D01*
X44418747Y-71135413D01*
X44264383Y-71056760D01*
X44024785Y-70978910D01*
X43775962Y-70939500D01*
X43524038Y-70939500D01*
X43399626Y-70959205D01*
X43275214Y-70978910D01*
X43035616Y-71056760D01*
X42811151Y-71171132D01*
X42607350Y-71319201D01*
X42607345Y-71319205D01*
X42429205Y-71497345D01*
X42429201Y-71497350D01*
X42281132Y-71701151D01*
X42166760Y-71925616D01*
X42088910Y-72165214D01*
X42077400Y-72237883D01*
X42049500Y-72414038D01*
X42049500Y-72665962D01*
X42088910Y-72914785D01*
X42166760Y-73154383D01*
X42231860Y-73282147D01*
X42272993Y-73362876D01*
X42281132Y-73378848D01*
X42429201Y-73582649D01*
X42429205Y-73582654D01*
X42429207Y-73582656D01*
X42607344Y-73760793D01*
X42607345Y-73760794D01*
X42607344Y-73760794D01*
X42613661Y-73765383D01*
X42656327Y-73820714D01*
X42662305Y-73890327D01*
X42629699Y-73952122D01*
X42568860Y-73986479D01*
X42521378Y-73988174D01*
X42466611Y-73979500D01*
X42293389Y-73979500D01*
X42254471Y-73985664D01*
X42122302Y-74006597D01*
X41957552Y-74060128D01*
X41803211Y-74138768D01*
X41746289Y-74180125D01*
X41663072Y-74240586D01*
X41663070Y-74240588D01*
X41663069Y-74240588D01*
X41540588Y-74363069D01*
X41540588Y-74363070D01*
X41540586Y-74363072D01*
X41496859Y-74423256D01*
X41438768Y-74503211D01*
X41360128Y-74657552D01*
X41306597Y-74822302D01*
X41279500Y-74993389D01*
X33700500Y-74993389D01*
X33700500Y-69874038D01*
X48399500Y-69874038D01*
X48399500Y-70125962D01*
X48416367Y-70232454D01*
X48438910Y-70374785D01*
X48516760Y-70614383D01*
X48595413Y-70768747D01*
X48630636Y-70837876D01*
X48631132Y-70838848D01*
X48779201Y-71042649D01*
X48779205Y-71042654D01*
X48957345Y-71220794D01*
X48957350Y-71220798D01*
X49135117Y-71349952D01*
X49161155Y-71368870D01*
X49285712Y-71432335D01*
X49385616Y-71483239D01*
X49385618Y-71483239D01*
X49385621Y-71483241D01*
X49625215Y-71561090D01*
X49874038Y-71600500D01*
X49874039Y-71600500D01*
X50125961Y-71600500D01*
X50125962Y-71600500D01*
X50374785Y-71561090D01*
X50614379Y-71483241D01*
X50838845Y-71368870D01*
X51042656Y-71220793D01*
X51220793Y-71042656D01*
X51368870Y-70838845D01*
X51483241Y-70614379D01*
X51506715Y-70542135D01*
X55699500Y-70542135D01*
X55699500Y-72237870D01*
X55699501Y-72237876D01*
X55705908Y-72297483D01*
X55756202Y-72432328D01*
X55756206Y-72432335D01*
X55842452Y-72547544D01*
X55842455Y-72547547D01*
X55957664Y-72633793D01*
X55957671Y-72633797D01*
X56092517Y-72684091D01*
X56092516Y-72684091D01*
X56099444Y-72684835D01*
X56152127Y-72690500D01*
X57847872Y-72690499D01*
X57907483Y-72684091D01*
X58042331Y-72633796D01*
X58157546Y-72547546D01*
X58243796Y-72432331D01*
X58294091Y-72297483D01*
X58300500Y-72237873D01*
X58300499Y-70990096D01*
X58320184Y-70923058D01*
X58336818Y-70902416D01*
X58602416Y-70636819D01*
X58663739Y-70603334D01*
X58690097Y-70600500D01*
X68433700Y-70600500D01*
X68500739Y-70620185D01*
X68544184Y-70668204D01*
X68630636Y-70837876D01*
X68631132Y-70838848D01*
X68779201Y-71042649D01*
X68779205Y-71042654D01*
X68957345Y-71220794D01*
X68957350Y-71220798D01*
X69135117Y-71349952D01*
X69161155Y-71368870D01*
X69285712Y-71432335D01*
X69385616Y-71483239D01*
X69385618Y-71483239D01*
X69385621Y-71483241D01*
X69625215Y-71561090D01*
X69874038Y-71600500D01*
X69874039Y-71600500D01*
X70125961Y-71600500D01*
X70125962Y-71600500D01*
X70374785Y-71561090D01*
X70614379Y-71483241D01*
X70838845Y-71368870D01*
X71042656Y-71220793D01*
X71220793Y-71042656D01*
X71368870Y-70838845D01*
X71483241Y-70614379D01*
X71561090Y-70374785D01*
X71600500Y-70125962D01*
X71600500Y-69874038D01*
X71561090Y-69625215D01*
X71561089Y-69625211D01*
X71561089Y-69625210D01*
X71501909Y-69443073D01*
X71499914Y-69373232D01*
X71532157Y-69317076D01*
X72412416Y-68436819D01*
X72473739Y-68403334D01*
X72500097Y-68400500D01*
X77850902Y-68400500D01*
X77872148Y-68406738D01*
X77894237Y-68408319D01*
X77905019Y-68416390D01*
X77917941Y-68420185D01*
X77932441Y-68436918D01*
X77950170Y-68450191D01*
X77954876Y-68462811D01*
X77963696Y-68472989D01*
X77966847Y-68494906D01*
X77974586Y-68515655D01*
X77971723Y-68528814D01*
X77973640Y-68542147D01*
X77964439Y-68562292D01*
X77959733Y-68583928D01*
X77946465Y-68601651D01*
X77944615Y-68605703D01*
X77938582Y-68612182D01*
X77897581Y-68653182D01*
X77836258Y-68686667D01*
X77809901Y-68689500D01*
X76152129Y-68689500D01*
X76152123Y-68689501D01*
X76092516Y-68695908D01*
X75957671Y-68746202D01*
X75957664Y-68746206D01*
X75842455Y-68832452D01*
X75842452Y-68832455D01*
X75756206Y-68947664D01*
X75756202Y-68947671D01*
X75705908Y-69082517D01*
X75699501Y-69142116D01*
X75699500Y-69142135D01*
X75699500Y-70837870D01*
X75699501Y-70837876D01*
X75705908Y-70897483D01*
X75756202Y-71032328D01*
X75756206Y-71032335D01*
X75842452Y-71147544D01*
X75842455Y-71147547D01*
X75957664Y-71233793D01*
X75957671Y-71233797D01*
X76092517Y-71284091D01*
X76092516Y-71284091D01*
X76099444Y-71284835D01*
X76152127Y-71290500D01*
X77847872Y-71290499D01*
X77907483Y-71284091D01*
X78042331Y-71233796D01*
X78157546Y-71147546D01*
X78243796Y-71032331D01*
X78294091Y-70897483D01*
X78300500Y-70837873D01*
X78300499Y-70000096D01*
X78320183Y-69933058D01*
X78336818Y-69912416D01*
X78508969Y-69740265D01*
X78814662Y-69434572D01*
X78875983Y-69401089D01*
X78878150Y-69400638D01*
X78953668Y-69385616D01*
X79033497Y-69369737D01*
X79179179Y-69309394D01*
X79310289Y-69221789D01*
X79421789Y-69110289D01*
X79509394Y-68979179D01*
X79569737Y-68833497D01*
X79600500Y-68678842D01*
X79600500Y-68524500D01*
X79620185Y-68457461D01*
X79672989Y-68411706D01*
X79724500Y-68400500D01*
X87499903Y-68400500D01*
X87566942Y-68420185D01*
X87587584Y-68436819D01*
X88467841Y-69317076D01*
X88501326Y-69378399D01*
X88498091Y-69443074D01*
X88470288Y-69528644D01*
X88438911Y-69625213D01*
X88438910Y-69625215D01*
X88399500Y-69874038D01*
X88399500Y-70125962D01*
X88416367Y-70232454D01*
X88438910Y-70374785D01*
X88516760Y-70614383D01*
X88595413Y-70768747D01*
X88630636Y-70837876D01*
X88631132Y-70838848D01*
X88779201Y-71042649D01*
X88779205Y-71042654D01*
X88957345Y-71220794D01*
X88957350Y-71220798D01*
X89135117Y-71349952D01*
X89161155Y-71368870D01*
X89285712Y-71432335D01*
X89385616Y-71483239D01*
X89385618Y-71483239D01*
X89385621Y-71483241D01*
X89625215Y-71561090D01*
X89874038Y-71600500D01*
X89874039Y-71600500D01*
X90125961Y-71600500D01*
X90125962Y-71600500D01*
X90374785Y-71561090D01*
X90614379Y-71483241D01*
X90838845Y-71368870D01*
X91042656Y-71220793D01*
X91220793Y-71042656D01*
X91368870Y-70838845D01*
X91483241Y-70614379D01*
X91561090Y-70374785D01*
X91600500Y-70125962D01*
X91600500Y-69874038D01*
X91561090Y-69625215D01*
X91561089Y-69625211D01*
X91561089Y-69625210D01*
X91545465Y-69577124D01*
X91534096Y-69542135D01*
X95499500Y-69542135D01*
X95499500Y-71237870D01*
X95499501Y-71237876D01*
X95505908Y-71297483D01*
X95556202Y-71432328D01*
X95556206Y-71432335D01*
X95642452Y-71547544D01*
X95642455Y-71547547D01*
X95757664Y-71633793D01*
X95757671Y-71633797D01*
X95892517Y-71684091D01*
X95892516Y-71684091D01*
X95899444Y-71684835D01*
X95952127Y-71690500D01*
X97647872Y-71690499D01*
X97707483Y-71684091D01*
X97842331Y-71633796D01*
X97957546Y-71547546D01*
X98043796Y-71432331D01*
X98094091Y-71297483D01*
X98100500Y-71237873D01*
X98100499Y-69542128D01*
X98094091Y-69482517D01*
X98089702Y-69470750D01*
X98043797Y-69347671D01*
X98043793Y-69347664D01*
X97957547Y-69232455D01*
X97957544Y-69232452D01*
X97842335Y-69146206D01*
X97842328Y-69146202D01*
X97707482Y-69095908D01*
X97707483Y-69095908D01*
X97647883Y-69089501D01*
X97647881Y-69089500D01*
X97647873Y-69089500D01*
X97647864Y-69089500D01*
X95952129Y-69089500D01*
X95952123Y-69089501D01*
X95892516Y-69095908D01*
X95757671Y-69146202D01*
X95757664Y-69146206D01*
X95642455Y-69232452D01*
X95642452Y-69232455D01*
X95556206Y-69347664D01*
X95556202Y-69347671D01*
X95505908Y-69482517D01*
X95499501Y-69542116D01*
X95499501Y-69542123D01*
X95499500Y-69542135D01*
X91534096Y-69542135D01*
X91488075Y-69400500D01*
X91483241Y-69385621D01*
X91483239Y-69385618D01*
X91483239Y-69385616D01*
X91405199Y-69232455D01*
X91368870Y-69161155D01*
X91321466Y-69095909D01*
X91220798Y-68957350D01*
X91220794Y-68957345D01*
X91042654Y-68779205D01*
X91042649Y-68779201D01*
X90838848Y-68631132D01*
X90838847Y-68631131D01*
X90838845Y-68631130D01*
X90746206Y-68583928D01*
X90668205Y-68544184D01*
X90617409Y-68496209D01*
X90600500Y-68433699D01*
X90600500Y-66120945D01*
X90600500Y-66120943D01*
X90559577Y-65968216D01*
X90559577Y-65968215D01*
X90524885Y-65908127D01*
X90480520Y-65831284D01*
X90368716Y-65719480D01*
X90368715Y-65719479D01*
X90364385Y-65715149D01*
X90364374Y-65715139D01*
X90234574Y-65585339D01*
X90201089Y-65524016D01*
X90200638Y-65521849D01*
X90169738Y-65366510D01*
X90169737Y-65366503D01*
X90169735Y-65366498D01*
X90109397Y-65220827D01*
X90109390Y-65220814D01*
X90021789Y-65089711D01*
X90021786Y-65089707D01*
X89910292Y-64978213D01*
X89910288Y-64978210D01*
X89779185Y-64890609D01*
X89779172Y-64890602D01*
X89633501Y-64830264D01*
X89633489Y-64830261D01*
X89478845Y-64799500D01*
X89478842Y-64799500D01*
X89321158Y-64799500D01*
X89321155Y-64799500D01*
X89166510Y-64830261D01*
X89166498Y-64830264D01*
X89020827Y-64890602D01*
X89020814Y-64890609D01*
X88889711Y-64978210D01*
X88889707Y-64978213D01*
X88778213Y-65089707D01*
X88778210Y-65089711D01*
X88690609Y-65220814D01*
X88690602Y-65220827D01*
X88630264Y-65366498D01*
X88630261Y-65366510D01*
X88599500Y-65521153D01*
X88599500Y-65678846D01*
X88630261Y-65833489D01*
X88630264Y-65833501D01*
X88690602Y-65979172D01*
X88690609Y-65979185D01*
X88778210Y-66110288D01*
X88778213Y-66110292D01*
X88889707Y-66221786D01*
X88889711Y-66221789D01*
X89020814Y-66309390D01*
X89020827Y-66309397D01*
X89166498Y-66369735D01*
X89166503Y-66369737D01*
X89276987Y-66391713D01*
X89299691Y-66396230D01*
X89361602Y-66428615D01*
X89396176Y-66489330D01*
X89399500Y-66517847D01*
X89399500Y-68250903D01*
X89379815Y-68317942D01*
X89327011Y-68363697D01*
X89257853Y-68373641D01*
X89194297Y-68344616D01*
X89187819Y-68338584D01*
X88287590Y-67438355D01*
X88287588Y-67438352D01*
X88168717Y-67319481D01*
X88168716Y-67319480D01*
X88081904Y-67269360D01*
X88081904Y-67269359D01*
X88081900Y-67269358D01*
X88031785Y-67240423D01*
X87879057Y-67199499D01*
X87720943Y-67199499D01*
X87713347Y-67199499D01*
X87713331Y-67199500D01*
X72286669Y-67199500D01*
X72286653Y-67199499D01*
X72279057Y-67199499D01*
X72120943Y-67199499D01*
X72013587Y-67228265D01*
X71968210Y-67240424D01*
X71968209Y-67240425D01*
X71918096Y-67269359D01*
X71918095Y-67269360D01*
X71874689Y-67294420D01*
X71831285Y-67319479D01*
X71831282Y-67319481D01*
X71719478Y-67431286D01*
X70682923Y-68467840D01*
X70621600Y-68501325D01*
X70556924Y-68498090D01*
X70374787Y-68438910D01*
X70203027Y-68411706D01*
X70125962Y-68399500D01*
X69874038Y-68399500D01*
X69796973Y-68411706D01*
X69625214Y-68438910D01*
X69385616Y-68516760D01*
X69161151Y-68631132D01*
X68957350Y-68779201D01*
X68957345Y-68779205D01*
X68779205Y-68957345D01*
X68779201Y-68957350D01*
X68631132Y-69161151D01*
X68631130Y-69161155D01*
X68551685Y-69317076D01*
X68544185Y-69331795D01*
X68496211Y-69382591D01*
X68433700Y-69399500D01*
X58476669Y-69399500D01*
X58476653Y-69399499D01*
X58469057Y-69399499D01*
X58310943Y-69399499D01*
X58203587Y-69428265D01*
X58158210Y-69440424D01*
X58158209Y-69440425D01*
X58110905Y-69467737D01*
X58110896Y-69467742D01*
X58108095Y-69469360D01*
X58021284Y-69519480D01*
X58002954Y-69537809D01*
X57992014Y-69544911D01*
X57970531Y-69551325D01*
X57950858Y-69562068D01*
X57937703Y-69561127D01*
X57925065Y-69564901D01*
X57903526Y-69558683D01*
X57881166Y-69557084D01*
X57870608Y-69549180D01*
X57857936Y-69545522D01*
X57843176Y-69528644D01*
X57825233Y-69515212D01*
X57820624Y-69502856D01*
X57811941Y-69492927D01*
X57808649Y-69470750D01*
X57800816Y-69449748D01*
X57800500Y-69440902D01*
X57800500Y-61434499D01*
X57820185Y-61367460D01*
X57872989Y-61321705D01*
X57924500Y-61310499D01*
X58047871Y-61310499D01*
X58047872Y-61310499D01*
X58107483Y-61304091D01*
X58242331Y-61253796D01*
X58357546Y-61167546D01*
X58443796Y-61052331D01*
X58494091Y-60917483D01*
X58500500Y-60857873D01*
X58500499Y-59162128D01*
X58494091Y-59102517D01*
X58461367Y-59014780D01*
X58443797Y-58967671D01*
X58443793Y-58967664D01*
X58357547Y-58852455D01*
X58357544Y-58852452D01*
X58242335Y-58766206D01*
X58242328Y-58766202D01*
X58107482Y-58715908D01*
X58107483Y-58715908D01*
X58047883Y-58709501D01*
X58047881Y-58709500D01*
X58047873Y-58709500D01*
X58047864Y-58709500D01*
X56352129Y-58709500D01*
X56352123Y-58709501D01*
X56292516Y-58715908D01*
X56157671Y-58766202D01*
X56157664Y-58766206D01*
X56042455Y-58852452D01*
X56042452Y-58852455D01*
X55956206Y-58967664D01*
X55956202Y-58967671D01*
X55905908Y-59102517D01*
X55901715Y-59141522D01*
X55899501Y-59162123D01*
X55899500Y-59162135D01*
X55899500Y-60857870D01*
X55899501Y-60857876D01*
X55905908Y-60917483D01*
X55956202Y-61052328D01*
X55956206Y-61052335D01*
X56042452Y-61167544D01*
X56042455Y-61167547D01*
X56157664Y-61253793D01*
X56157671Y-61253797D01*
X56202618Y-61270561D01*
X56292517Y-61304091D01*
X56352127Y-61310500D01*
X56475500Y-61310499D01*
X56542539Y-61330183D01*
X56588294Y-61382987D01*
X56599500Y-61434499D01*
X56599500Y-69965500D01*
X56579815Y-70032539D01*
X56527011Y-70078294D01*
X56475500Y-70089500D01*
X56152130Y-70089500D01*
X56152123Y-70089501D01*
X56092516Y-70095908D01*
X55957671Y-70146202D01*
X55957664Y-70146206D01*
X55842455Y-70232452D01*
X55842452Y-70232455D01*
X55756206Y-70347664D01*
X55756202Y-70347671D01*
X55705908Y-70482517D01*
X55699501Y-70542116D01*
X55699500Y-70542135D01*
X51506715Y-70542135D01*
X51561090Y-70374785D01*
X51600500Y-70125962D01*
X51600500Y-69874038D01*
X51561090Y-69625215D01*
X51561089Y-69625213D01*
X51538953Y-69557084D01*
X51501907Y-69443071D01*
X51499913Y-69373235D01*
X51532156Y-69317078D01*
X53212417Y-67636819D01*
X53273740Y-67603334D01*
X53300098Y-67600500D01*
X54620234Y-67600500D01*
X54687273Y-67620185D01*
X54689125Y-67621398D01*
X54820814Y-67709390D01*
X54820827Y-67709397D01*
X54966498Y-67769735D01*
X54966503Y-67769737D01*
X55121153Y-67800499D01*
X55121156Y-67800500D01*
X55121158Y-67800500D01*
X55278844Y-67800500D01*
X55278845Y-67800499D01*
X55433497Y-67769737D01*
X55579179Y-67709394D01*
X55710289Y-67621789D01*
X55821789Y-67510289D01*
X55909394Y-67379179D01*
X55969737Y-67233497D01*
X56000500Y-67078842D01*
X56000500Y-66921158D01*
X56000500Y-66921155D01*
X56000499Y-66921153D01*
X55969738Y-66766510D01*
X55969737Y-66766503D01*
X55969735Y-66766498D01*
X55909397Y-66620827D01*
X55909390Y-66620814D01*
X55821789Y-66489711D01*
X55821786Y-66489707D01*
X55710292Y-66378213D01*
X55710288Y-66378210D01*
X55579185Y-66290609D01*
X55579172Y-66290602D01*
X55433501Y-66230264D01*
X55433489Y-66230261D01*
X55278845Y-66199500D01*
X55278842Y-66199500D01*
X55121158Y-66199500D01*
X55121155Y-66199500D01*
X54966510Y-66230261D01*
X54966498Y-66230264D01*
X54820827Y-66290602D01*
X54820814Y-66290609D01*
X54689125Y-66378602D01*
X54622447Y-66399480D01*
X54620234Y-66399500D01*
X53086670Y-66399500D01*
X53086654Y-66399499D01*
X53079058Y-66399499D01*
X52920943Y-66399499D01*
X52844579Y-66419961D01*
X52768214Y-66440423D01*
X52768209Y-66440426D01*
X52631290Y-66519475D01*
X52631282Y-66519481D01*
X50682922Y-68467840D01*
X50621599Y-68501325D01*
X50556923Y-68498090D01*
X50374787Y-68438910D01*
X50203027Y-68411706D01*
X50125962Y-68399500D01*
X49874038Y-68399500D01*
X49796973Y-68411706D01*
X49625214Y-68438910D01*
X49385616Y-68516760D01*
X49161151Y-68631132D01*
X48957350Y-68779201D01*
X48957345Y-68779205D01*
X48779205Y-68957345D01*
X48779201Y-68957350D01*
X48631132Y-69161151D01*
X48516760Y-69385616D01*
X48438910Y-69625214D01*
X48438910Y-69625215D01*
X48399500Y-69874038D01*
X33700500Y-69874038D01*
X33700500Y-54993389D01*
X41279500Y-54993389D01*
X41279500Y-55166611D01*
X41306598Y-55337701D01*
X41360127Y-55502445D01*
X41438768Y-55656788D01*
X41540586Y-55796928D01*
X41663072Y-55919414D01*
X41803212Y-56021232D01*
X41957555Y-56099873D01*
X42122299Y-56153402D01*
X42293389Y-56180500D01*
X42293390Y-56180500D01*
X42466610Y-56180500D01*
X42466611Y-56180500D01*
X42637701Y-56153402D01*
X42802445Y-56099873D01*
X42956788Y-56021232D01*
X43096928Y-55919414D01*
X43219414Y-55796928D01*
X43321232Y-55656788D01*
X43399873Y-55502445D01*
X43453402Y-55337701D01*
X43480500Y-55166611D01*
X43480500Y-54993389D01*
X43453402Y-54822299D01*
X43399873Y-54657555D01*
X43321232Y-54503212D01*
X43219414Y-54363072D01*
X43167482Y-54311140D01*
X43133997Y-54249817D01*
X43138981Y-54180125D01*
X43180853Y-54124192D01*
X43246317Y-54099775D01*
X43274561Y-54100986D01*
X43275212Y-54101089D01*
X43275215Y-54101090D01*
X43524038Y-54140500D01*
X43524039Y-54140500D01*
X43775961Y-54140500D01*
X43775962Y-54140500D01*
X44024785Y-54101090D01*
X44264379Y-54023241D01*
X44488845Y-53908870D01*
X44692656Y-53760793D01*
X44870793Y-53582656D01*
X45018870Y-53378845D01*
X45105815Y-53208204D01*
X45153789Y-53157409D01*
X45216300Y-53140500D01*
X45925462Y-53140500D01*
X45992501Y-53160185D01*
X46038256Y-53212989D01*
X46048200Y-53282147D01*
X46019175Y-53345703D01*
X46000948Y-53362876D01*
X45972959Y-53384352D01*
X45972952Y-53384358D01*
X45764358Y-53592952D01*
X45764352Y-53592959D01*
X45584761Y-53827006D01*
X45437258Y-54082489D01*
X45437254Y-54082499D01*
X45324364Y-54355038D01*
X45324361Y-54355048D01*
X45248008Y-54640004D01*
X45248006Y-54640015D01*
X45209500Y-54932486D01*
X45209500Y-55227513D01*
X45241571Y-55471113D01*
X45248007Y-55519993D01*
X45322212Y-55796930D01*
X45324361Y-55804951D01*
X45324364Y-55804961D01*
X45437254Y-56077500D01*
X45437258Y-56077510D01*
X45584761Y-56332993D01*
X45764352Y-56567040D01*
X45764358Y-56567047D01*
X45972952Y-56775641D01*
X45972959Y-56775647D01*
X46207006Y-56955238D01*
X46462489Y-57102741D01*
X46462490Y-57102741D01*
X46462493Y-57102743D01*
X46735048Y-57215639D01*
X47020007Y-57291993D01*
X47312494Y-57330500D01*
X47312501Y-57330500D01*
X47607499Y-57330500D01*
X47607506Y-57330500D01*
X47899993Y-57291993D01*
X48184952Y-57215639D01*
X48457507Y-57102743D01*
X48712994Y-56955238D01*
X48947042Y-56775646D01*
X49155646Y-56567042D01*
X49335238Y-56332994D01*
X49482743Y-56077507D01*
X49595639Y-55804952D01*
X49671993Y-55519993D01*
X49710500Y-55227506D01*
X49710500Y-54993389D01*
X51439500Y-54993389D01*
X51439500Y-55166611D01*
X51466598Y-55337701D01*
X51520127Y-55502445D01*
X51598768Y-55656788D01*
X51700586Y-55796928D01*
X51823072Y-55919414D01*
X51963212Y-56021232D01*
X52117555Y-56099873D01*
X52282299Y-56153402D01*
X52453389Y-56180500D01*
X52453390Y-56180500D01*
X52626610Y-56180500D01*
X52626611Y-56180500D01*
X52797701Y-56153402D01*
X52962445Y-56099873D01*
X53116788Y-56021232D01*
X53256928Y-55919414D01*
X53379414Y-55796928D01*
X53481232Y-55656788D01*
X53559873Y-55502445D01*
X53613402Y-55337701D01*
X53640500Y-55166611D01*
X53640500Y-54993389D01*
X53613402Y-54822299D01*
X53559873Y-54657555D01*
X53481232Y-54503212D01*
X53379414Y-54363072D01*
X53256928Y-54240586D01*
X53116788Y-54138768D01*
X52962445Y-54060127D01*
X52797701Y-54006598D01*
X52797699Y-54006597D01*
X52797698Y-54006597D01*
X52666271Y-53985781D01*
X52626611Y-53979500D01*
X52453389Y-53979500D01*
X52413728Y-53985781D01*
X52282302Y-54006597D01*
X52117552Y-54060128D01*
X51963211Y-54138768D01*
X51906289Y-54180125D01*
X51823072Y-54240586D01*
X51823070Y-54240588D01*
X51823069Y-54240588D01*
X51700588Y-54363069D01*
X51700588Y-54363070D01*
X51700586Y-54363072D01*
X51656859Y-54423256D01*
X51598768Y-54503211D01*
X51520128Y-54657552D01*
X51466597Y-54822302D01*
X51449146Y-54932486D01*
X51439500Y-54993389D01*
X49710500Y-54993389D01*
X49710500Y-54932494D01*
X49671993Y-54640007D01*
X49595639Y-54355048D01*
X49482743Y-54082493D01*
X49475366Y-54069716D01*
X49335238Y-53827006D01*
X49155647Y-53592959D01*
X49155641Y-53592952D01*
X48947047Y-53384358D01*
X48947040Y-53384352D01*
X48919052Y-53362876D01*
X48877849Y-53306448D01*
X48873694Y-53236702D01*
X48907906Y-53175782D01*
X48969624Y-53143029D01*
X48994538Y-53140500D01*
X56074582Y-53140500D01*
X56141621Y-53160185D01*
X56174900Y-53191615D01*
X56208028Y-53237212D01*
X56208032Y-53237217D01*
X56352786Y-53381971D01*
X56507749Y-53494556D01*
X56518390Y-53502287D01*
X56634607Y-53561503D01*
X56700776Y-53595218D01*
X56700778Y-53595218D01*
X56700781Y-53595220D01*
X56805137Y-53629127D01*
X56895465Y-53658477D01*
X56996557Y-53674488D01*
X57097648Y-53690500D01*
X57097649Y-53690500D01*
X57302351Y-53690500D01*
X57302352Y-53690500D01*
X57504534Y-53658477D01*
X57699219Y-53595220D01*
X57881610Y-53502287D01*
X57974590Y-53434732D01*
X58047213Y-53381971D01*
X58047215Y-53381968D01*
X58047219Y-53381966D01*
X58191966Y-53237219D01*
X58191968Y-53237215D01*
X58191971Y-53237213D01*
X58291297Y-53100500D01*
X58312287Y-53071610D01*
X58405220Y-52889219D01*
X58468477Y-52694534D01*
X58500500Y-52492352D01*
X58500500Y-52287648D01*
X58482070Y-52171286D01*
X58468477Y-52085465D01*
X58438104Y-51991987D01*
X58405220Y-51890781D01*
X58405218Y-51890778D01*
X58405218Y-51890776D01*
X58334573Y-51752129D01*
X58312287Y-51708390D01*
X58300754Y-51692516D01*
X58191971Y-51542786D01*
X58047213Y-51398028D01*
X57881613Y-51277715D01*
X57881612Y-51277714D01*
X57881610Y-51277713D01*
X57812577Y-51242539D01*
X57699223Y-51184781D01*
X57504534Y-51121522D01*
X57329995Y-51093878D01*
X57302352Y-51089500D01*
X57097648Y-51089500D01*
X57073329Y-51093351D01*
X56895465Y-51121522D01*
X56700776Y-51184781D01*
X56518386Y-51277715D01*
X56352786Y-51398028D01*
X56208028Y-51542786D01*
X56087715Y-51708385D01*
X56004454Y-51871795D01*
X55956479Y-51922591D01*
X55893969Y-51939500D01*
X45216300Y-51939500D01*
X45149261Y-51919815D01*
X45105815Y-51871795D01*
X45018870Y-51701155D01*
X44968956Y-51632454D01*
X44870798Y-51497350D01*
X44870794Y-51497345D01*
X44692654Y-51319205D01*
X44692649Y-51319201D01*
X44488848Y-51171132D01*
X44488847Y-51171131D01*
X44488845Y-51171130D01*
X44391484Y-51121522D01*
X44264383Y-51056760D01*
X44024785Y-50978910D01*
X43775962Y-50939500D01*
X43524038Y-50939500D01*
X43399626Y-50959205D01*
X43275214Y-50978910D01*
X43035616Y-51056760D01*
X42811151Y-51171132D01*
X42607350Y-51319201D01*
X42607345Y-51319205D01*
X42429205Y-51497345D01*
X42429201Y-51497350D01*
X42281132Y-51701151D01*
X42166760Y-51925616D01*
X42129733Y-52039575D01*
X42088910Y-52165215D01*
X42049500Y-52414038D01*
X42049500Y-52665962D01*
X42084861Y-52889219D01*
X42088910Y-52914785D01*
X42166760Y-53154383D01*
X42208967Y-53237217D01*
X42272993Y-53362876D01*
X42281132Y-53378848D01*
X42429201Y-53582649D01*
X42429205Y-53582654D01*
X42429207Y-53582656D01*
X42607344Y-53760793D01*
X42607345Y-53760794D01*
X42607344Y-53760794D01*
X42613661Y-53765383D01*
X42656327Y-53820714D01*
X42662305Y-53890327D01*
X42629699Y-53952122D01*
X42568860Y-53986479D01*
X42521378Y-53988174D01*
X42466611Y-53979500D01*
X42293389Y-53979500D01*
X42253728Y-53985781D01*
X42122302Y-54006597D01*
X41957552Y-54060128D01*
X41803211Y-54138768D01*
X41746289Y-54180125D01*
X41663072Y-54240586D01*
X41663070Y-54240588D01*
X41663069Y-54240588D01*
X41540588Y-54363069D01*
X41540588Y-54363070D01*
X41540586Y-54363072D01*
X41496859Y-54423256D01*
X41438768Y-54503211D01*
X41360128Y-54657552D01*
X41306597Y-54822302D01*
X41289146Y-54932486D01*
X41279500Y-54993389D01*
X33700500Y-54993389D01*
X33700500Y-49874038D01*
X48399500Y-49874038D01*
X48399500Y-50125961D01*
X48438910Y-50374785D01*
X48516760Y-50614383D01*
X48631132Y-50838848D01*
X48779201Y-51042649D01*
X48779205Y-51042654D01*
X48957345Y-51220794D01*
X48957350Y-51220798D01*
X49135117Y-51349952D01*
X49161155Y-51368870D01*
X49304184Y-51441747D01*
X49385616Y-51483239D01*
X49385618Y-51483239D01*
X49385621Y-51483241D01*
X49625215Y-51561090D01*
X49874038Y-51600500D01*
X49874039Y-51600500D01*
X50125961Y-51600500D01*
X50125962Y-51600500D01*
X50374785Y-51561090D01*
X50614379Y-51483241D01*
X50838845Y-51368870D01*
X51042656Y-51220793D01*
X51220793Y-51042656D01*
X51368870Y-50838845D01*
X51455815Y-50668204D01*
X51503789Y-50617409D01*
X51566300Y-50600500D01*
X68433700Y-50600500D01*
X68500739Y-50620185D01*
X68544185Y-50668205D01*
X68631132Y-50838848D01*
X68779201Y-51042649D01*
X68779205Y-51042654D01*
X68957345Y-51220794D01*
X68957350Y-51220798D01*
X69135117Y-51349952D01*
X69161155Y-51368870D01*
X69304184Y-51441747D01*
X69385616Y-51483239D01*
X69385618Y-51483239D01*
X69385621Y-51483241D01*
X69625215Y-51561090D01*
X69874038Y-51600500D01*
X69874039Y-51600500D01*
X70125961Y-51600500D01*
X70125962Y-51600500D01*
X70374785Y-51561090D01*
X70556928Y-51501907D01*
X70626764Y-51499912D01*
X70682923Y-51532158D01*
X72965252Y-53814487D01*
X72998737Y-53875810D01*
X72993753Y-53945502D01*
X72951881Y-54001435D01*
X72886417Y-54025852D01*
X72839254Y-54020099D01*
X72797702Y-54006598D01*
X72797698Y-54006597D01*
X72666271Y-53985781D01*
X72626611Y-53979500D01*
X72453389Y-53979500D01*
X72413728Y-53985781D01*
X72282302Y-54006597D01*
X72117552Y-54060128D01*
X71963211Y-54138768D01*
X71906289Y-54180125D01*
X71823072Y-54240586D01*
X71823070Y-54240588D01*
X71823069Y-54240588D01*
X71700588Y-54363069D01*
X71700588Y-54363070D01*
X71700586Y-54363072D01*
X71656859Y-54423256D01*
X71598768Y-54503211D01*
X71520127Y-54657553D01*
X71506994Y-54697972D01*
X71467556Y-54755646D01*
X71403196Y-54782843D01*
X71334350Y-54770927D01*
X71301383Y-54747332D01*
X68732406Y-52178355D01*
X68732404Y-52178352D01*
X68613533Y-52059481D01*
X68613525Y-52059475D01*
X68496631Y-51991987D01*
X68496630Y-51991986D01*
X68482551Y-51983858D01*
X68476601Y-51980423D01*
X68323873Y-51939499D01*
X68165759Y-51939499D01*
X68158163Y-51939499D01*
X68158147Y-51939500D01*
X65216300Y-51939500D01*
X65149261Y-51919815D01*
X65105815Y-51871795D01*
X65018870Y-51701155D01*
X64968956Y-51632454D01*
X64870798Y-51497350D01*
X64870794Y-51497345D01*
X64692654Y-51319205D01*
X64692649Y-51319201D01*
X64488848Y-51171132D01*
X64488847Y-51171131D01*
X64488845Y-51171130D01*
X64391484Y-51121522D01*
X64264383Y-51056760D01*
X64024785Y-50978910D01*
X63775962Y-50939500D01*
X63524038Y-50939500D01*
X63399626Y-50959205D01*
X63275214Y-50978910D01*
X63035616Y-51056760D01*
X62811151Y-51171132D01*
X62607350Y-51319201D01*
X62607345Y-51319205D01*
X62429205Y-51497345D01*
X62429201Y-51497350D01*
X62281132Y-51701151D01*
X62166760Y-51925616D01*
X62129733Y-52039575D01*
X62088910Y-52165215D01*
X62049500Y-52414038D01*
X62049500Y-52665962D01*
X62084861Y-52889219D01*
X62088910Y-52914785D01*
X62166760Y-53154383D01*
X62208967Y-53237217D01*
X62272993Y-53362876D01*
X62281132Y-53378848D01*
X62429201Y-53582649D01*
X62429205Y-53582654D01*
X62429207Y-53582656D01*
X62607344Y-53760793D01*
X62607345Y-53760794D01*
X62607344Y-53760794D01*
X62613661Y-53765383D01*
X62656327Y-53820714D01*
X62662305Y-53890327D01*
X62629699Y-53952122D01*
X62568860Y-53986479D01*
X62521378Y-53988174D01*
X62466611Y-53979500D01*
X62293389Y-53979500D01*
X62253728Y-53985781D01*
X62122302Y-54006597D01*
X61957552Y-54060128D01*
X61803211Y-54138768D01*
X61746289Y-54180125D01*
X61663072Y-54240586D01*
X61663070Y-54240588D01*
X61663069Y-54240588D01*
X61540588Y-54363069D01*
X61540588Y-54363070D01*
X61540586Y-54363072D01*
X61496859Y-54423256D01*
X61438768Y-54503211D01*
X61360128Y-54657552D01*
X61306597Y-54822302D01*
X61289146Y-54932486D01*
X61279500Y-54993389D01*
X61279500Y-55166611D01*
X61306598Y-55337701D01*
X61360127Y-55502445D01*
X61438768Y-55656788D01*
X61540586Y-55796928D01*
X61663072Y-55919414D01*
X61803212Y-56021232D01*
X61957555Y-56099873D01*
X62122299Y-56153402D01*
X62293389Y-56180500D01*
X62293390Y-56180500D01*
X62466610Y-56180500D01*
X62466611Y-56180500D01*
X62637701Y-56153402D01*
X62802445Y-56099873D01*
X62956788Y-56021232D01*
X63096928Y-55919414D01*
X63219414Y-55796928D01*
X63321232Y-55656788D01*
X63399873Y-55502445D01*
X63453402Y-55337701D01*
X63480500Y-55166611D01*
X63480500Y-54993389D01*
X63453402Y-54822299D01*
X63399873Y-54657555D01*
X63321232Y-54503212D01*
X63219414Y-54363072D01*
X63167482Y-54311140D01*
X63133997Y-54249817D01*
X63138981Y-54180125D01*
X63180853Y-54124192D01*
X63246317Y-54099775D01*
X63274561Y-54100986D01*
X63275212Y-54101089D01*
X63275215Y-54101090D01*
X63524038Y-54140500D01*
X63524039Y-54140500D01*
X63775961Y-54140500D01*
X63775962Y-54140500D01*
X64024785Y-54101090D01*
X64264379Y-54023241D01*
X64488845Y-53908870D01*
X64692656Y-53760793D01*
X64870793Y-53582656D01*
X65018870Y-53378845D01*
X65105815Y-53208204D01*
X65153789Y-53157409D01*
X65216300Y-53140500D01*
X65925462Y-53140500D01*
X65992501Y-53160185D01*
X66038256Y-53212989D01*
X66048200Y-53282147D01*
X66019175Y-53345703D01*
X66000948Y-53362876D01*
X65972959Y-53384352D01*
X65972952Y-53384358D01*
X65764358Y-53592952D01*
X65764352Y-53592959D01*
X65584761Y-53827006D01*
X65437258Y-54082489D01*
X65437254Y-54082499D01*
X65324364Y-54355038D01*
X65324361Y-54355048D01*
X65248008Y-54640004D01*
X65248006Y-54640015D01*
X65209500Y-54932486D01*
X65209500Y-55227513D01*
X65241571Y-55471113D01*
X65248007Y-55519993D01*
X65322212Y-55796930D01*
X65324361Y-55804951D01*
X65324364Y-55804961D01*
X65437254Y-56077500D01*
X65437258Y-56077510D01*
X65584761Y-56332993D01*
X65764352Y-56567040D01*
X65764358Y-56567047D01*
X65972952Y-56775641D01*
X65972959Y-56775647D01*
X66207006Y-56955238D01*
X66462489Y-57102741D01*
X66462490Y-57102741D01*
X66462493Y-57102743D01*
X66735048Y-57215639D01*
X67020007Y-57291993D01*
X67312494Y-57330500D01*
X67312501Y-57330500D01*
X67607499Y-57330500D01*
X67607506Y-57330500D01*
X67899993Y-57291993D01*
X68184952Y-57215639D01*
X68457507Y-57102743D01*
X68712994Y-56955238D01*
X68947042Y-56775646D01*
X69155646Y-56567042D01*
X69335238Y-56332994D01*
X69482743Y-56077507D01*
X69595639Y-55804952D01*
X69671993Y-55519993D01*
X69710500Y-55227506D01*
X69710500Y-55154281D01*
X69730185Y-55087242D01*
X69782989Y-55041487D01*
X69852147Y-55031543D01*
X69915703Y-55060568D01*
X69922181Y-55066600D01*
X75444294Y-60588713D01*
X75444296Y-60588716D01*
X75556100Y-60700520D01*
X75577869Y-60713088D01*
X75588232Y-60722767D01*
X75599086Y-60741127D01*
X75613806Y-60756564D01*
X75614077Y-60757092D01*
X75665429Y-60857876D01*
X75687715Y-60901613D01*
X75808028Y-61067213D01*
X75952786Y-61211971D01*
X76103825Y-61321705D01*
X76118390Y-61332287D01*
X76217894Y-61382987D01*
X76300776Y-61425218D01*
X76300778Y-61425218D01*
X76300781Y-61425220D01*
X76405137Y-61459127D01*
X76495465Y-61488477D01*
X76596557Y-61504488D01*
X76697648Y-61520500D01*
X76697649Y-61520500D01*
X76902351Y-61520500D01*
X76902352Y-61520500D01*
X77104534Y-61488477D01*
X77299219Y-61425220D01*
X77481610Y-61332287D01*
X77589643Y-61253797D01*
X77647213Y-61211971D01*
X77647215Y-61211968D01*
X77647219Y-61211966D01*
X77791966Y-61067219D01*
X77791968Y-61067215D01*
X77791971Y-61067213D01*
X77844732Y-60994590D01*
X77912287Y-60901610D01*
X78005220Y-60719219D01*
X78068477Y-60524534D01*
X78100500Y-60322352D01*
X78100500Y-60117648D01*
X78068477Y-59915466D01*
X78005220Y-59720781D01*
X78005218Y-59720778D01*
X78005218Y-59720776D01*
X77924717Y-59562786D01*
X77912287Y-59538390D01*
X77904556Y-59527749D01*
X77791971Y-59372786D01*
X77647213Y-59228028D01*
X77481613Y-59107715D01*
X77481612Y-59107714D01*
X77481610Y-59107713D01*
X77424653Y-59078691D01*
X77299223Y-59014781D01*
X77104534Y-58951522D01*
X76929995Y-58923878D01*
X76902352Y-58919500D01*
X76697648Y-58919500D01*
X76673329Y-58923351D01*
X76495465Y-58951522D01*
X76300776Y-59014781D01*
X76118386Y-59107715D01*
X75952786Y-59228028D01*
X75949085Y-59231191D01*
X75947804Y-59229692D01*
X75893791Y-59259186D01*
X75824099Y-59254202D01*
X75779752Y-59225701D01*
X72872667Y-56318616D01*
X72839182Y-56257293D01*
X72844166Y-56187601D01*
X72886038Y-56131668D01*
X72922028Y-56113005D01*
X72962445Y-56099873D01*
X73116788Y-56021232D01*
X73256928Y-55919414D01*
X73379414Y-55796928D01*
X73481232Y-55656788D01*
X73559873Y-55502445D01*
X73613402Y-55337701D01*
X73640500Y-55166611D01*
X73640500Y-54993389D01*
X81279500Y-54993389D01*
X81279500Y-55166611D01*
X81306598Y-55337701D01*
X81360127Y-55502445D01*
X81438768Y-55656788D01*
X81540586Y-55796928D01*
X81663072Y-55919414D01*
X81803212Y-56021232D01*
X81957555Y-56099873D01*
X82122299Y-56153402D01*
X82293389Y-56180500D01*
X82293390Y-56180500D01*
X82466610Y-56180500D01*
X82466611Y-56180500D01*
X82637701Y-56153402D01*
X82802445Y-56099873D01*
X82956788Y-56021232D01*
X83096928Y-55919414D01*
X83219414Y-55796928D01*
X83321232Y-55656788D01*
X83399873Y-55502445D01*
X83453402Y-55337701D01*
X83480500Y-55166611D01*
X83480500Y-54993389D01*
X83453402Y-54822299D01*
X83399873Y-54657555D01*
X83321232Y-54503212D01*
X83219414Y-54363072D01*
X83167482Y-54311140D01*
X83133997Y-54249817D01*
X83138981Y-54180125D01*
X83180853Y-54124192D01*
X83246317Y-54099775D01*
X83274561Y-54100986D01*
X83275212Y-54101089D01*
X83275215Y-54101090D01*
X83524038Y-54140500D01*
X83524039Y-54140500D01*
X83775961Y-54140500D01*
X83775962Y-54140500D01*
X84024785Y-54101090D01*
X84264379Y-54023241D01*
X84488845Y-53908870D01*
X84692656Y-53760793D01*
X84870793Y-53582656D01*
X85018870Y-53378845D01*
X85105815Y-53208204D01*
X85153789Y-53157409D01*
X85216300Y-53140500D01*
X85925462Y-53140500D01*
X85992501Y-53160185D01*
X86038256Y-53212989D01*
X86048200Y-53282147D01*
X86019175Y-53345703D01*
X86000948Y-53362876D01*
X85972959Y-53384352D01*
X85972952Y-53384358D01*
X85764358Y-53592952D01*
X85764352Y-53592959D01*
X85584761Y-53827006D01*
X85437258Y-54082489D01*
X85437254Y-54082499D01*
X85324364Y-54355038D01*
X85324361Y-54355048D01*
X85248008Y-54640004D01*
X85248006Y-54640015D01*
X85209500Y-54932486D01*
X85209500Y-55227513D01*
X85241571Y-55471113D01*
X85248007Y-55519993D01*
X85322212Y-55796930D01*
X85324361Y-55804951D01*
X85324364Y-55804961D01*
X85437254Y-56077500D01*
X85437258Y-56077510D01*
X85584761Y-56332993D01*
X85764352Y-56567040D01*
X85764358Y-56567047D01*
X85972952Y-56775641D01*
X85972959Y-56775647D01*
X86207006Y-56955238D01*
X86462489Y-57102741D01*
X86462490Y-57102741D01*
X86462493Y-57102743D01*
X86735048Y-57215639D01*
X87020007Y-57291993D01*
X87312494Y-57330500D01*
X87312501Y-57330500D01*
X87607499Y-57330500D01*
X87607506Y-57330500D01*
X87899993Y-57291993D01*
X88184952Y-57215639D01*
X88457507Y-57102743D01*
X88712994Y-56955238D01*
X88947042Y-56775646D01*
X89155646Y-56567042D01*
X89335238Y-56332994D01*
X89482743Y-56077507D01*
X89595639Y-55804952D01*
X89671993Y-55519993D01*
X89710500Y-55227506D01*
X89710500Y-55154281D01*
X89730185Y-55087242D01*
X89782989Y-55041487D01*
X89852147Y-55031543D01*
X89915703Y-55060568D01*
X89922181Y-55066600D01*
X95063727Y-60208147D01*
X95097212Y-60269470D01*
X95099477Y-60302776D01*
X95099500Y-60302776D01*
X95099500Y-60303115D01*
X95099665Y-60305542D01*
X95099500Y-60307641D01*
X95099500Y-60307648D01*
X95099500Y-60512352D01*
X95103878Y-60539995D01*
X95131522Y-60714534D01*
X95194781Y-60909223D01*
X95258691Y-61034653D01*
X95267701Y-61052335D01*
X95287715Y-61091613D01*
X95408028Y-61257213D01*
X95552786Y-61401971D01*
X95671854Y-61488477D01*
X95718390Y-61522287D01*
X95834607Y-61581503D01*
X95900776Y-61615218D01*
X95900778Y-61615218D01*
X95900781Y-61615220D01*
X96005137Y-61649127D01*
X96095465Y-61678477D01*
X96196557Y-61694488D01*
X96297648Y-61710500D01*
X96297649Y-61710500D01*
X96502351Y-61710500D01*
X96502352Y-61710500D01*
X96704534Y-61678477D01*
X96899219Y-61615220D01*
X97081610Y-61522287D01*
X97202441Y-61434499D01*
X97247213Y-61401971D01*
X97247215Y-61401968D01*
X97247219Y-61401966D01*
X97391966Y-61257219D01*
X97391968Y-61257215D01*
X97391971Y-61257213D01*
X97457118Y-61167544D01*
X97512287Y-61091610D01*
X97605220Y-60909219D01*
X97668477Y-60714534D01*
X97700500Y-60512352D01*
X97700500Y-60307648D01*
X97684740Y-60208147D01*
X97668477Y-60105465D01*
X97605218Y-59910776D01*
X97571503Y-59844607D01*
X97512287Y-59728390D01*
X97504556Y-59717749D01*
X97391971Y-59562786D01*
X97247213Y-59418028D01*
X97081613Y-59297715D01*
X97081612Y-59297714D01*
X97081610Y-59297713D01*
X96996215Y-59254202D01*
X96899223Y-59204781D01*
X96704534Y-59141522D01*
X96529995Y-59113878D01*
X96502352Y-59109500D01*
X96297648Y-59109500D01*
X96230254Y-59120174D01*
X96095464Y-59141523D01*
X96095461Y-59141523D01*
X95900784Y-59204778D01*
X95887015Y-59211794D01*
X95818345Y-59224689D01*
X95753605Y-59198411D01*
X95743041Y-59188989D01*
X92872667Y-56318616D01*
X92839182Y-56257293D01*
X92844166Y-56187601D01*
X92886038Y-56131668D01*
X92922028Y-56113005D01*
X92962445Y-56099873D01*
X93116788Y-56021232D01*
X93256928Y-55919414D01*
X93379414Y-55796928D01*
X93481232Y-55656788D01*
X93559873Y-55502445D01*
X93613402Y-55337701D01*
X93640500Y-55166611D01*
X93640500Y-54993389D01*
X93613402Y-54822299D01*
X93559873Y-54657555D01*
X93481232Y-54503212D01*
X93379414Y-54363072D01*
X93256928Y-54240586D01*
X93116788Y-54138768D01*
X92962445Y-54060127D01*
X92797701Y-54006598D01*
X92797699Y-54006597D01*
X92797698Y-54006597D01*
X92666271Y-53985781D01*
X92626611Y-53979500D01*
X92453389Y-53979500D01*
X92413728Y-53985781D01*
X92282302Y-54006597D01*
X92117552Y-54060128D01*
X91963211Y-54138768D01*
X91906289Y-54180125D01*
X91823072Y-54240586D01*
X91823070Y-54240588D01*
X91823069Y-54240588D01*
X91700588Y-54363069D01*
X91700588Y-54363070D01*
X91700586Y-54363072D01*
X91656859Y-54423256D01*
X91598768Y-54503211D01*
X91520127Y-54657553D01*
X91506994Y-54697972D01*
X91467556Y-54755646D01*
X91403196Y-54782843D01*
X91334350Y-54770927D01*
X91301383Y-54747332D01*
X88734563Y-52180512D01*
X88725337Y-52171286D01*
X88725336Y-52171284D01*
X88613532Y-52059480D01*
X88579057Y-52039576D01*
X88579056Y-52039575D01*
X88539476Y-52016724D01*
X88496630Y-51991987D01*
X88496628Y-51991985D01*
X88483277Y-51984277D01*
X88476601Y-51980423D01*
X88333711Y-51942135D01*
X95099500Y-51942135D01*
X95099500Y-53637870D01*
X95099501Y-53637876D01*
X95105908Y-53697483D01*
X95156202Y-53832328D01*
X95156206Y-53832335D01*
X95242452Y-53947544D01*
X95242455Y-53947547D01*
X95357664Y-54033793D01*
X95357671Y-54033797D01*
X95492517Y-54084091D01*
X95492516Y-54084091D01*
X95499444Y-54084835D01*
X95552127Y-54090500D01*
X97247872Y-54090499D01*
X97307483Y-54084091D01*
X97442331Y-54033796D01*
X97557546Y-53947546D01*
X97643796Y-53832331D01*
X97694091Y-53697483D01*
X97700500Y-53637873D01*
X97700499Y-51942128D01*
X97694091Y-51882517D01*
X97645459Y-51752129D01*
X97643797Y-51747671D01*
X97643793Y-51747664D01*
X97557547Y-51632455D01*
X97557544Y-51632452D01*
X97442335Y-51546206D01*
X97442328Y-51546202D01*
X97307482Y-51495908D01*
X97307483Y-51495908D01*
X97247883Y-51489501D01*
X97247881Y-51489500D01*
X97247873Y-51489500D01*
X97247864Y-51489500D01*
X95552129Y-51489500D01*
X95552123Y-51489501D01*
X95492516Y-51495908D01*
X95357671Y-51546202D01*
X95357664Y-51546206D01*
X95242455Y-51632452D01*
X95242452Y-51632455D01*
X95156206Y-51747664D01*
X95156202Y-51747671D01*
X95105908Y-51882517D01*
X95099782Y-51939500D01*
X95099501Y-51942123D01*
X95099500Y-51942135D01*
X88333711Y-51942135D01*
X88323873Y-51939499D01*
X88165759Y-51939499D01*
X88158163Y-51939499D01*
X88158147Y-51939500D01*
X85216300Y-51939500D01*
X85149261Y-51919815D01*
X85105815Y-51871795D01*
X85018870Y-51701155D01*
X84968956Y-51632454D01*
X84870798Y-51497350D01*
X84870794Y-51497345D01*
X84692654Y-51319205D01*
X84692649Y-51319201D01*
X84488848Y-51171132D01*
X84488847Y-51171131D01*
X84488845Y-51171130D01*
X84391484Y-51121522D01*
X84264383Y-51056760D01*
X84024785Y-50978910D01*
X83775962Y-50939500D01*
X83524038Y-50939500D01*
X83399626Y-50959205D01*
X83275214Y-50978910D01*
X83035616Y-51056760D01*
X82811151Y-51171132D01*
X82607350Y-51319201D01*
X82607345Y-51319205D01*
X82429205Y-51497345D01*
X82429201Y-51497350D01*
X82281132Y-51701151D01*
X82166760Y-51925616D01*
X82129733Y-52039575D01*
X82088910Y-52165215D01*
X82049500Y-52414038D01*
X82049500Y-52665962D01*
X82084861Y-52889219D01*
X82088910Y-52914785D01*
X82166760Y-53154383D01*
X82208967Y-53237217D01*
X82272993Y-53362876D01*
X82281132Y-53378848D01*
X82429201Y-53582649D01*
X82429205Y-53582654D01*
X82429207Y-53582656D01*
X82607344Y-53760793D01*
X82607345Y-53760794D01*
X82607344Y-53760794D01*
X82613661Y-53765383D01*
X82656327Y-53820714D01*
X82662305Y-53890327D01*
X82629699Y-53952122D01*
X82568860Y-53986479D01*
X82521378Y-53988174D01*
X82466611Y-53979500D01*
X82293389Y-53979500D01*
X82253728Y-53985781D01*
X82122302Y-54006597D01*
X81957552Y-54060128D01*
X81803211Y-54138768D01*
X81746289Y-54180125D01*
X81663072Y-54240586D01*
X81663070Y-54240588D01*
X81663069Y-54240588D01*
X81540588Y-54363069D01*
X81540588Y-54363070D01*
X81540586Y-54363072D01*
X81496859Y-54423256D01*
X81438768Y-54503211D01*
X81360128Y-54657552D01*
X81306597Y-54822302D01*
X81289146Y-54932486D01*
X81279500Y-54993389D01*
X73640500Y-54993389D01*
X73613402Y-54822299D01*
X73559873Y-54657555D01*
X73481232Y-54503212D01*
X73471060Y-54489212D01*
X73447579Y-54423407D01*
X73463403Y-54355353D01*
X73513508Y-54306657D01*
X73581985Y-54292780D01*
X73603473Y-54296551D01*
X73621942Y-54301500D01*
X73621943Y-54301500D01*
X77814331Y-54301500D01*
X77814347Y-54301501D01*
X77821943Y-54301501D01*
X77980054Y-54301501D01*
X77980057Y-54301501D01*
X78132785Y-54260577D01*
X78182904Y-54231639D01*
X78269716Y-54181520D01*
X78381520Y-54069716D01*
X78381520Y-54069714D01*
X78391728Y-54059507D01*
X78391729Y-54059504D01*
X81814416Y-50636819D01*
X81875739Y-50603334D01*
X81902097Y-50600500D01*
X88433700Y-50600500D01*
X88500739Y-50620185D01*
X88544185Y-50668205D01*
X88631132Y-50838848D01*
X88779201Y-51042649D01*
X88779205Y-51042654D01*
X88957345Y-51220794D01*
X88957350Y-51220798D01*
X89135117Y-51349952D01*
X89161155Y-51368870D01*
X89304184Y-51441747D01*
X89385616Y-51483239D01*
X89385618Y-51483239D01*
X89385621Y-51483241D01*
X89625215Y-51561090D01*
X89874038Y-51600500D01*
X89874039Y-51600500D01*
X90125961Y-51600500D01*
X90125962Y-51600500D01*
X90374785Y-51561090D01*
X90614379Y-51483241D01*
X90838845Y-51368870D01*
X91042656Y-51220793D01*
X91220793Y-51042656D01*
X91368870Y-50838845D01*
X91483241Y-50614379D01*
X91561090Y-50374785D01*
X91600500Y-50125962D01*
X91600500Y-49874038D01*
X91561090Y-49625215D01*
X91561089Y-49625211D01*
X91561089Y-49625210D01*
X91501909Y-49443073D01*
X91499914Y-49373232D01*
X91532157Y-49317076D01*
X92812416Y-48036819D01*
X92873739Y-48003334D01*
X92900097Y-48000500D01*
X97420234Y-48000500D01*
X97487273Y-48020185D01*
X97489125Y-48021398D01*
X97620814Y-48109390D01*
X97620827Y-48109397D01*
X97766498Y-48169735D01*
X97766503Y-48169737D01*
X97921153Y-48200499D01*
X97921156Y-48200500D01*
X97921158Y-48200500D01*
X98078844Y-48200500D01*
X98078845Y-48200499D01*
X98233497Y-48169737D01*
X98379179Y-48109394D01*
X98510289Y-48021789D01*
X98621789Y-47910289D01*
X98709394Y-47779179D01*
X98769737Y-47633497D01*
X98800500Y-47478842D01*
X98800500Y-47321158D01*
X98800500Y-47321155D01*
X98800499Y-47321153D01*
X98769738Y-47166510D01*
X98769737Y-47166503D01*
X98713728Y-47031284D01*
X98709397Y-47020827D01*
X98709390Y-47020814D01*
X98621789Y-46889711D01*
X98621786Y-46889707D01*
X98510292Y-46778213D01*
X98510288Y-46778210D01*
X98379185Y-46690609D01*
X98379172Y-46690602D01*
X98233501Y-46630264D01*
X98233489Y-46630261D01*
X98078845Y-46599500D01*
X98078842Y-46599500D01*
X97921158Y-46599500D01*
X97921155Y-46599500D01*
X97766510Y-46630261D01*
X97766498Y-46630264D01*
X97620827Y-46690602D01*
X97620814Y-46690609D01*
X97489125Y-46778602D01*
X97422447Y-46799480D01*
X97420234Y-46799500D01*
X92679057Y-46799500D01*
X92520942Y-46799500D01*
X92368215Y-46840423D01*
X92368214Y-46840423D01*
X92368212Y-46840424D01*
X92368209Y-46840425D01*
X92318096Y-46869359D01*
X92318095Y-46869360D01*
X92282853Y-46889707D01*
X92231285Y-46919479D01*
X92231282Y-46919481D01*
X92119478Y-47031286D01*
X90682923Y-48467840D01*
X90621600Y-48501325D01*
X90556924Y-48498090D01*
X90374787Y-48438910D01*
X90208903Y-48412636D01*
X90125962Y-48399500D01*
X89874038Y-48399500D01*
X89749626Y-48419205D01*
X89625214Y-48438910D01*
X89385616Y-48516760D01*
X89161151Y-48631132D01*
X88957350Y-48779201D01*
X88957345Y-48779205D01*
X88779205Y-48957345D01*
X88779201Y-48957350D01*
X88631132Y-49161151D01*
X88631130Y-49161155D01*
X88551686Y-49317074D01*
X88544185Y-49331795D01*
X88496211Y-49382591D01*
X88433700Y-49399500D01*
X81522940Y-49399500D01*
X81482019Y-49410464D01*
X81482019Y-49410465D01*
X81444751Y-49420451D01*
X81370214Y-49440423D01*
X81370209Y-49440426D01*
X81233290Y-49519475D01*
X81233282Y-49519481D01*
X78312180Y-52440584D01*
X78250857Y-52474069D01*
X78181165Y-52469085D01*
X78125232Y-52427213D01*
X78100815Y-52361749D01*
X78100499Y-52352903D01*
X78100499Y-51752129D01*
X78100498Y-51752123D01*
X78100497Y-51752116D01*
X78094091Y-51692517D01*
X78071689Y-51632455D01*
X78043797Y-51557671D01*
X78043793Y-51557664D01*
X77957547Y-51442455D01*
X77957544Y-51442452D01*
X77842335Y-51356206D01*
X77842328Y-51356202D01*
X77707482Y-51305908D01*
X77707483Y-51305908D01*
X77647883Y-51299501D01*
X77647881Y-51299500D01*
X77647873Y-51299500D01*
X77647865Y-51299500D01*
X77524500Y-51299500D01*
X77457461Y-51279815D01*
X77411706Y-51227011D01*
X77400500Y-51175500D01*
X77400500Y-45031941D01*
X77420185Y-44964902D01*
X77472989Y-44919147D01*
X77542147Y-44909203D01*
X77605703Y-44938228D01*
X77612181Y-44944260D01*
X77689707Y-45021786D01*
X77689711Y-45021789D01*
X77820814Y-45109390D01*
X77820827Y-45109397D01*
X77930323Y-45154751D01*
X77966503Y-45169737D01*
X78121153Y-45200499D01*
X78121156Y-45200500D01*
X78121158Y-45200500D01*
X78278844Y-45200500D01*
X78278845Y-45200499D01*
X78355152Y-45185320D01*
X78433488Y-45169739D01*
X78433488Y-45169738D01*
X78433497Y-45169737D01*
X78450230Y-45162806D01*
X78471289Y-45157163D01*
X78471206Y-45156854D01*
X78479054Y-45154751D01*
X78479057Y-45154751D01*
X78631785Y-45113827D01*
X78681904Y-45084889D01*
X78768716Y-45034770D01*
X78880520Y-44922966D01*
X78880520Y-44922964D01*
X78890728Y-44912757D01*
X78890730Y-44912754D01*
X81737571Y-42065912D01*
X81798892Y-42032429D01*
X81868584Y-42037413D01*
X81924517Y-42079285D01*
X81948934Y-42144749D01*
X81949250Y-42153595D01*
X81949250Y-43902528D01*
X81949251Y-43902534D01*
X81959863Y-44021915D01*
X82015839Y-44217545D01*
X82015840Y-44217548D01*
X82015841Y-44217549D01*
X82110052Y-44397907D01*
X82110054Y-44397909D01*
X82238640Y-44555609D01*
X82332553Y-44632184D01*
X82396343Y-44684198D01*
X82576701Y-44778409D01*
X82772332Y-44834386D01*
X82891713Y-44845000D01*
X84007786Y-44844999D01*
X84127168Y-44834386D01*
X84322799Y-44778409D01*
X84503157Y-44684198D01*
X84641390Y-44571483D01*
X84705785Y-44544375D01*
X84774615Y-44556384D01*
X84798107Y-44571481D01*
X84936343Y-44684198D01*
X85116701Y-44778409D01*
X85312332Y-44834386D01*
X85431713Y-44845000D01*
X86547786Y-44844999D01*
X86667168Y-44834386D01*
X86862799Y-44778409D01*
X87043157Y-44684198D01*
X87181390Y-44571483D01*
X87245785Y-44544375D01*
X87314615Y-44556384D01*
X87338107Y-44571481D01*
X87476343Y-44684198D01*
X87656701Y-44778409D01*
X87852332Y-44834386D01*
X87971713Y-44845000D01*
X89087786Y-44844999D01*
X89207168Y-44834386D01*
X89402799Y-44778409D01*
X89583157Y-44684198D01*
X89721390Y-44571483D01*
X89785785Y-44544375D01*
X89854615Y-44556384D01*
X89878107Y-44571481D01*
X90016343Y-44684198D01*
X90196701Y-44778409D01*
X90392332Y-44834386D01*
X90511713Y-44845000D01*
X91627786Y-44844999D01*
X91747168Y-44834386D01*
X91942799Y-44778409D01*
X92123157Y-44684198D01*
X92261390Y-44571483D01*
X92325785Y-44544375D01*
X92394615Y-44556384D01*
X92418107Y-44571481D01*
X92556343Y-44684198D01*
X92736701Y-44778409D01*
X92932332Y-44834386D01*
X93051713Y-44845000D01*
X94167786Y-44844999D01*
X94287168Y-44834386D01*
X94482799Y-44778409D01*
X94663157Y-44684198D01*
X94801787Y-44571160D01*
X94866181Y-44544052D01*
X94935011Y-44556061D01*
X94958507Y-44571161D01*
X95096620Y-44683778D01*
X95276888Y-44777942D01*
X95472421Y-44833890D01*
X95472424Y-44833891D01*
X95591749Y-44844499D01*
X95591752Y-44844500D01*
X96707748Y-44844500D01*
X96707750Y-44844499D01*
X96827075Y-44833891D01*
X96827078Y-44833890D01*
X97022611Y-44777942D01*
X97202880Y-44683778D01*
X97340991Y-44571162D01*
X97405387Y-44544052D01*
X97474217Y-44556061D01*
X97497714Y-44571161D01*
X97636343Y-44684198D01*
X97816701Y-44778409D01*
X98012332Y-44834386D01*
X98131713Y-44845000D01*
X99247786Y-44844999D01*
X99367168Y-44834386D01*
X99562799Y-44778409D01*
X99743157Y-44684198D01*
X99900859Y-44555609D01*
X100029448Y-44397907D01*
X100123659Y-44217549D01*
X100179636Y-44021918D01*
X100190250Y-43902537D01*
X100190249Y-42036464D01*
X100179636Y-41917082D01*
X100123659Y-41721451D01*
X100029448Y-41541093D01*
X99910282Y-41394947D01*
X99900859Y-41383390D01*
X99785683Y-41289477D01*
X99743157Y-41254802D01*
X99562799Y-41160591D01*
X99562798Y-41160590D01*
X99562795Y-41160589D01*
X99445579Y-41127050D01*
X99367168Y-41104614D01*
X99367165Y-41104613D01*
X99367163Y-41104613D01*
X99300852Y-41098717D01*
X99247787Y-41094000D01*
X99247782Y-41094000D01*
X98131721Y-41094000D01*
X98131715Y-41094000D01*
X98131714Y-41094001D01*
X98126101Y-41094500D01*
X98012334Y-41104613D01*
X97816704Y-41160589D01*
X97636337Y-41254805D01*
X97497713Y-41367838D01*
X97433317Y-41394947D01*
X97364487Y-41382937D01*
X97340992Y-41367838D01*
X97202879Y-41255221D01*
X97022611Y-41161057D01*
X96827078Y-41105109D01*
X96827075Y-41105108D01*
X96707750Y-41094500D01*
X95591749Y-41094500D01*
X95472424Y-41105108D01*
X95472421Y-41105109D01*
X95276888Y-41161057D01*
X95096620Y-41255221D01*
X94958507Y-41367838D01*
X94894111Y-41394947D01*
X94825281Y-41382938D01*
X94801785Y-41367838D01*
X94752008Y-41327250D01*
X94663157Y-41254802D01*
X94482799Y-41160591D01*
X94482798Y-41160590D01*
X94482795Y-41160589D01*
X94365579Y-41127050D01*
X94287168Y-41104614D01*
X94287165Y-41104613D01*
X94287163Y-41104613D01*
X94220852Y-41098717D01*
X94167787Y-41094000D01*
X94167782Y-41094000D01*
X93051721Y-41094000D01*
X93051715Y-41094000D01*
X93051714Y-41094001D01*
X93046101Y-41094500D01*
X92932334Y-41104613D01*
X92736704Y-41160589D01*
X92646522Y-41207696D01*
X92556343Y-41254802D01*
X92556341Y-41254803D01*
X92556340Y-41254804D01*
X92418111Y-41367515D01*
X92353714Y-41394624D01*
X92284885Y-41382615D01*
X92261389Y-41367515D01*
X92198135Y-41315938D01*
X92123157Y-41254802D01*
X91942799Y-41160591D01*
X91942798Y-41160590D01*
X91942795Y-41160589D01*
X91825579Y-41127050D01*
X91747168Y-41104614D01*
X91747165Y-41104613D01*
X91747163Y-41104613D01*
X91680852Y-41098717D01*
X91627787Y-41094000D01*
X91627782Y-41094000D01*
X90511721Y-41094000D01*
X90511715Y-41094000D01*
X90511714Y-41094001D01*
X90506101Y-41094500D01*
X90392334Y-41104613D01*
X90196704Y-41160589D01*
X90106522Y-41207696D01*
X90016343Y-41254802D01*
X90016341Y-41254803D01*
X90016340Y-41254804D01*
X89878111Y-41367515D01*
X89813714Y-41394624D01*
X89744885Y-41382615D01*
X89721389Y-41367515D01*
X89658135Y-41315938D01*
X89583157Y-41254802D01*
X89402799Y-41160591D01*
X89402798Y-41160590D01*
X89402795Y-41160589D01*
X89285579Y-41127050D01*
X89207168Y-41104614D01*
X89207165Y-41104613D01*
X89207163Y-41104613D01*
X89140852Y-41098717D01*
X89087787Y-41094000D01*
X89087782Y-41094000D01*
X87971721Y-41094000D01*
X87971715Y-41094000D01*
X87971714Y-41094001D01*
X87966101Y-41094500D01*
X87852334Y-41104613D01*
X87656704Y-41160589D01*
X87566522Y-41207696D01*
X87476343Y-41254802D01*
X87476341Y-41254803D01*
X87476340Y-41254804D01*
X87338111Y-41367515D01*
X87273714Y-41394624D01*
X87204885Y-41382615D01*
X87181389Y-41367515D01*
X87118135Y-41315938D01*
X87043157Y-41254802D01*
X86862799Y-41160591D01*
X86862798Y-41160590D01*
X86862795Y-41160589D01*
X86745579Y-41127050D01*
X86667168Y-41104614D01*
X86667165Y-41104613D01*
X86667163Y-41104613D01*
X86600852Y-41098717D01*
X86547787Y-41094000D01*
X86547782Y-41094000D01*
X85431721Y-41094000D01*
X85431715Y-41094000D01*
X85431714Y-41094001D01*
X85426101Y-41094500D01*
X85312334Y-41104613D01*
X85116704Y-41160589D01*
X85026522Y-41207696D01*
X84936343Y-41254802D01*
X84936341Y-41254803D01*
X84936340Y-41254804D01*
X84798111Y-41367515D01*
X84733714Y-41394624D01*
X84664885Y-41382615D01*
X84641389Y-41367515D01*
X84578135Y-41315938D01*
X84503157Y-41254802D01*
X84322799Y-41160591D01*
X84322798Y-41160590D01*
X84322795Y-41160589D01*
X84205579Y-41127050D01*
X84127168Y-41104614D01*
X84127165Y-41104613D01*
X84127163Y-41104613D01*
X84054381Y-41098142D01*
X84007787Y-41094000D01*
X84007783Y-41094000D01*
X83008845Y-41094000D01*
X82941806Y-41074315D01*
X82896051Y-41021511D01*
X82886107Y-40952353D01*
X82915132Y-40888797D01*
X82921150Y-40882333D01*
X86431714Y-37371769D01*
X96146032Y-37371769D01*
X96146032Y-37371770D01*
X96200199Y-37411124D01*
X96389532Y-37507595D01*
X96591620Y-37573257D01*
X96801504Y-37606500D01*
X97013996Y-37606500D01*
X97223877Y-37573257D01*
X97223880Y-37573257D01*
X97425967Y-37507595D01*
X97615304Y-37411122D01*
X97669466Y-37371770D01*
X97669467Y-37371770D01*
X96907750Y-36610054D01*
X96146032Y-37371769D01*
X86431714Y-37371769D01*
X87653230Y-36150253D01*
X95557750Y-36150253D01*
X95557750Y-36362746D01*
X95590992Y-36572627D01*
X95590992Y-36572630D01*
X95656654Y-36774717D01*
X95753125Y-36964050D01*
X95792478Y-37018216D01*
X96554196Y-36256500D01*
X95792478Y-35494782D01*
X95792477Y-35494782D01*
X95753130Y-35548939D01*
X95656654Y-35738282D01*
X95590992Y-35940369D01*
X95590992Y-35940372D01*
X95557750Y-36150253D01*
X87653230Y-36150253D01*
X90193270Y-33610213D01*
X95557250Y-33610213D01*
X95557250Y-33822787D01*
X95590504Y-34032743D01*
X95633528Y-34165158D01*
X95656194Y-34234914D01*
X95752701Y-34424320D01*
X95877640Y-34596286D01*
X96027963Y-34746609D01*
X96199929Y-34871548D01*
X96199931Y-34871549D01*
X96199934Y-34871551D01*
X96209243Y-34876294D01*
X96260040Y-34924266D01*
X96276837Y-34992087D01*
X96254302Y-35058222D01*
X96209255Y-35097260D01*
X96200196Y-35101876D01*
X96200190Y-35101880D01*
X96146032Y-35141227D01*
X96146032Y-35141228D01*
X96907750Y-35902946D01*
X96907751Y-35902946D01*
X97669466Y-35141228D01*
X97615297Y-35101873D01*
X97615297Y-35101872D01*
X97606250Y-35097263D01*
X97555456Y-35049288D01*
X97538662Y-34981466D01*
X97561201Y-34915332D01*
X97606258Y-34876293D01*
X97615566Y-34871551D01*
X97694757Y-34814015D01*
X97787536Y-34746609D01*
X97787538Y-34746606D01*
X97787542Y-34746604D01*
X97937854Y-34596292D01*
X97937856Y-34596288D01*
X97937859Y-34596286D01*
X98062798Y-34424320D01*
X98062797Y-34424320D01*
X98062801Y-34424316D01*
X98067264Y-34415554D01*
X98115238Y-34364759D01*
X98183058Y-34347963D01*
X98249194Y-34370499D01*
X98288236Y-34415556D01*
X98292701Y-34424320D01*
X98417640Y-34596286D01*
X98567963Y-34746609D01*
X98739932Y-34871550D01*
X98748696Y-34876016D01*
X98799492Y-34923991D01*
X98816286Y-34991812D01*
X98793748Y-35057947D01*
X98748696Y-35096984D01*
X98739932Y-35101449D01*
X98567963Y-35226390D01*
X98417640Y-35376713D01*
X98292699Y-35548682D01*
X98287952Y-35557999D01*
X98239977Y-35608793D01*
X98172155Y-35625587D01*
X98106021Y-35603048D01*
X98066984Y-35557995D01*
X98062376Y-35548952D01*
X98023020Y-35494782D01*
X98023019Y-35494782D01*
X97261304Y-36256499D01*
X97261304Y-36256501D01*
X98023020Y-37018217D01*
X98023020Y-37018216D01*
X98062372Y-36964055D01*
X98066982Y-36955007D01*
X98114955Y-36904209D01*
X98182775Y-36887412D01*
X98248911Y-36909947D01*
X98287954Y-36955004D01*
X98292699Y-36964317D01*
X98417640Y-37136286D01*
X98567963Y-37286609D01*
X98739929Y-37411548D01*
X98739931Y-37411549D01*
X98739934Y-37411551D01*
X98929338Y-37508057D01*
X99131507Y-37573746D01*
X99341463Y-37607000D01*
X99341464Y-37607000D01*
X99554036Y-37607000D01*
X99554037Y-37607000D01*
X99763993Y-37573746D01*
X99966162Y-37508057D01*
X100155566Y-37411551D01*
X100210322Y-37371769D01*
X100327536Y-37286609D01*
X100327538Y-37286606D01*
X100327542Y-37286604D01*
X100477854Y-37136292D01*
X100477856Y-37136288D01*
X100477859Y-37136286D01*
X100602798Y-36964320D01*
X100602800Y-36964317D01*
X100602801Y-36964316D01*
X100699307Y-36774912D01*
X100764996Y-36572743D01*
X100798250Y-36362787D01*
X100798250Y-36150213D01*
X100764996Y-35940257D01*
X100699307Y-35738088D01*
X100602801Y-35548684D01*
X100602799Y-35548681D01*
X100602798Y-35548679D01*
X100477859Y-35376713D01*
X100327536Y-35226390D01*
X100155570Y-35101451D01*
X100147350Y-35097263D01*
X100146804Y-35096985D01*
X100096009Y-35049012D01*
X100079213Y-34981192D01*
X100101749Y-34915056D01*
X100146804Y-34876015D01*
X100155566Y-34871551D01*
X100177539Y-34855586D01*
X100327536Y-34746609D01*
X100327538Y-34746606D01*
X100327542Y-34746604D01*
X100477854Y-34596292D01*
X100477856Y-34596288D01*
X100477859Y-34596286D01*
X100602798Y-34424320D01*
X100602797Y-34424320D01*
X100602801Y-34424316D01*
X100699307Y-34234912D01*
X100764996Y-34032743D01*
X100798250Y-33822787D01*
X100798250Y-33610213D01*
X100764996Y-33400257D01*
X100699307Y-33198088D01*
X100602801Y-33008684D01*
X100602799Y-33008681D01*
X100602798Y-33008679D01*
X100477859Y-32836713D01*
X100327536Y-32686390D01*
X100155570Y-32561451D01*
X99966164Y-32464944D01*
X99966163Y-32464943D01*
X99966162Y-32464943D01*
X99763993Y-32399254D01*
X99763991Y-32399253D01*
X99763990Y-32399253D01*
X99602707Y-32373708D01*
X99554037Y-32366000D01*
X99341463Y-32366000D01*
X99292792Y-32373708D01*
X99131510Y-32399253D01*
X98929335Y-32464944D01*
X98739929Y-32561451D01*
X98567963Y-32686390D01*
X98417640Y-32836713D01*
X98292699Y-33008682D01*
X98288234Y-33017446D01*
X98240259Y-33068242D01*
X98172438Y-33085036D01*
X98106303Y-33062498D01*
X98067266Y-33017446D01*
X98062800Y-33008682D01*
X97937859Y-32836713D01*
X97787536Y-32686390D01*
X97615570Y-32561451D01*
X97426164Y-32464944D01*
X97426163Y-32464943D01*
X97426162Y-32464943D01*
X97223993Y-32399254D01*
X97223991Y-32399253D01*
X97223990Y-32399253D01*
X97062707Y-32373708D01*
X97014037Y-32366000D01*
X96801463Y-32366000D01*
X96752792Y-32373708D01*
X96591510Y-32399253D01*
X96389335Y-32464944D01*
X96199929Y-32561451D01*
X96027963Y-32686390D01*
X95877640Y-32836713D01*
X95752701Y-33008679D01*
X95656194Y-33198085D01*
X95590503Y-33400260D01*
X95557250Y-33610213D01*
X90193270Y-33610213D01*
X95157734Y-28645749D01*
X95219055Y-28612266D01*
X95279520Y-28614215D01*
X95472332Y-28669386D01*
X95591713Y-28680000D01*
X96707786Y-28679999D01*
X96827168Y-28669386D01*
X97022799Y-28613409D01*
X97203157Y-28519198D01*
X97341390Y-28406483D01*
X97405785Y-28379375D01*
X97474615Y-28391384D01*
X97498107Y-28406481D01*
X97636343Y-28519198D01*
X97816701Y-28613409D01*
X97816703Y-28613409D01*
X97816704Y-28613410D01*
X97863497Y-28626799D01*
X97922535Y-28664166D01*
X97951999Y-28727520D01*
X97942534Y-28796745D01*
X97917067Y-28833696D01*
X96985339Y-29765425D01*
X96924016Y-29798910D01*
X96921850Y-29799361D01*
X96766508Y-29830261D01*
X96766498Y-29830264D01*
X96620827Y-29890602D01*
X96620814Y-29890609D01*
X96489711Y-29978210D01*
X96489707Y-29978213D01*
X96378213Y-30089707D01*
X96378210Y-30089711D01*
X96290609Y-30220814D01*
X96290602Y-30220827D01*
X96230264Y-30366498D01*
X96230261Y-30366510D01*
X96199500Y-30521153D01*
X96199500Y-30678846D01*
X96230261Y-30833489D01*
X96230264Y-30833501D01*
X96290602Y-30979172D01*
X96290609Y-30979185D01*
X96378210Y-31110288D01*
X96378213Y-31110292D01*
X96489707Y-31221786D01*
X96489711Y-31221789D01*
X96620814Y-31309390D01*
X96620827Y-31309397D01*
X96766498Y-31369735D01*
X96766503Y-31369737D01*
X96921153Y-31400499D01*
X96921156Y-31400500D01*
X96921158Y-31400500D01*
X97078844Y-31400500D01*
X97078845Y-31400499D01*
X97233497Y-31369737D01*
X97379179Y-31309394D01*
X97510289Y-31221789D01*
X97621789Y-31110289D01*
X97709394Y-30979179D01*
X97769737Y-30833497D01*
X97789113Y-30736085D01*
X97800638Y-30678150D01*
X97833023Y-30616239D01*
X97834520Y-30614714D01*
X99048256Y-29400977D01*
X99048261Y-29400974D01*
X99058464Y-29390770D01*
X99058466Y-29390770D01*
X99170270Y-29278966D01*
X99249327Y-29142034D01*
X99290250Y-28989307D01*
X99290250Y-28784890D01*
X99309935Y-28717851D01*
X99362739Y-28672096D01*
X99380132Y-28665676D01*
X99562799Y-28613409D01*
X99743157Y-28519198D01*
X99900859Y-28390609D01*
X100029448Y-28232907D01*
X100123659Y-28052549D01*
X100179636Y-27856918D01*
X100190250Y-27737537D01*
X100190249Y-25871464D01*
X100179636Y-25752082D01*
X100123659Y-25556451D01*
X100029448Y-25376093D01*
X99959750Y-25290615D01*
X99900859Y-25218390D01*
X99743159Y-25089804D01*
X99743160Y-25089804D01*
X99743157Y-25089802D01*
X99562799Y-24995591D01*
X99562798Y-24995590D01*
X99562795Y-24995589D01*
X99445579Y-24962050D01*
X99367168Y-24939614D01*
X99367165Y-24939613D01*
X99367163Y-24939613D01*
X99300852Y-24933717D01*
X99247787Y-24929000D01*
X99247782Y-24929000D01*
X98131721Y-24929000D01*
X98131715Y-24929000D01*
X98131714Y-24929001D01*
X98120066Y-24930036D01*
X98012334Y-24939613D01*
X97816704Y-24995589D01*
X97726522Y-25042696D01*
X97636343Y-25089802D01*
X97636341Y-25089803D01*
X97636340Y-25089804D01*
X97498111Y-25202515D01*
X97433714Y-25229624D01*
X97364885Y-25217615D01*
X97341389Y-25202515D01*
X97203159Y-25089804D01*
X97203160Y-25089804D01*
X97203157Y-25089802D01*
X97022799Y-24995591D01*
X97022798Y-24995590D01*
X97022795Y-24995589D01*
X96905579Y-24962050D01*
X96827168Y-24939614D01*
X96827165Y-24939613D01*
X96827163Y-24939613D01*
X96760852Y-24933717D01*
X96707787Y-24929000D01*
X96707782Y-24929000D01*
X95591721Y-24929000D01*
X95591715Y-24929000D01*
X95591714Y-24929001D01*
X95580066Y-24930036D01*
X95472334Y-24939613D01*
X95276704Y-24995589D01*
X95186522Y-25042696D01*
X95096343Y-25089802D01*
X95096341Y-25089803D01*
X95096340Y-25089804D01*
X94958111Y-25202515D01*
X94893714Y-25229624D01*
X94824885Y-25217615D01*
X94801389Y-25202515D01*
X94663159Y-25089804D01*
X94663160Y-25089804D01*
X94663157Y-25089802D01*
X94482799Y-24995591D01*
X94482798Y-24995590D01*
X94482795Y-24995589D01*
X94365579Y-24962050D01*
X94287168Y-24939614D01*
X94287165Y-24939613D01*
X94287163Y-24939613D01*
X94220852Y-24933717D01*
X94167787Y-24929000D01*
X94167782Y-24929000D01*
X93051721Y-24929000D01*
X93051715Y-24929000D01*
X93051714Y-24929001D01*
X93040066Y-24930036D01*
X92932334Y-24939613D01*
X92736704Y-24995589D01*
X92646522Y-25042696D01*
X92556343Y-25089802D01*
X92556341Y-25089803D01*
X92556340Y-25089804D01*
X92418111Y-25202515D01*
X92353714Y-25229624D01*
X92284885Y-25217615D01*
X92261389Y-25202515D01*
X92123159Y-25089804D01*
X92123160Y-25089804D01*
X92123157Y-25089802D01*
X91942799Y-24995591D01*
X91942798Y-24995590D01*
X91942795Y-24995589D01*
X91825579Y-24962050D01*
X91747168Y-24939614D01*
X91747165Y-24939613D01*
X91747163Y-24939613D01*
X91680852Y-24933717D01*
X91627787Y-24929000D01*
X91627782Y-24929000D01*
X90511721Y-24929000D01*
X90511715Y-24929000D01*
X90511714Y-24929001D01*
X90500066Y-24930036D01*
X90392334Y-24939613D01*
X90196704Y-24995589D01*
X90106522Y-25042696D01*
X90016343Y-25089802D01*
X90016341Y-25089803D01*
X90016340Y-25089804D01*
X89878111Y-25202515D01*
X89813714Y-25229624D01*
X89744885Y-25217615D01*
X89721389Y-25202515D01*
X89583159Y-25089804D01*
X89583160Y-25089804D01*
X89583157Y-25089802D01*
X89402799Y-24995591D01*
X89402798Y-24995590D01*
X89402795Y-24995589D01*
X89285579Y-24962050D01*
X89207168Y-24939614D01*
X89207165Y-24939613D01*
X89207163Y-24939613D01*
X89140852Y-24933717D01*
X89087787Y-24929000D01*
X89087782Y-24929000D01*
X87971721Y-24929000D01*
X87971715Y-24929000D01*
X87971714Y-24929001D01*
X87960066Y-24930036D01*
X87852334Y-24939613D01*
X87656704Y-24995589D01*
X87566522Y-25042696D01*
X87476343Y-25089802D01*
X87476341Y-25089803D01*
X87476340Y-25089804D01*
X87338111Y-25202515D01*
X87273714Y-25229624D01*
X87204885Y-25217615D01*
X87181389Y-25202515D01*
X87043159Y-25089804D01*
X87043160Y-25089804D01*
X87043157Y-25089802D01*
X86862799Y-24995591D01*
X86862798Y-24995590D01*
X86862795Y-24995589D01*
X86745579Y-24962050D01*
X86667168Y-24939614D01*
X86667165Y-24939613D01*
X86667163Y-24939613D01*
X86600852Y-24933717D01*
X86547787Y-24929000D01*
X86547782Y-24929000D01*
X85431721Y-24929000D01*
X85431715Y-24929000D01*
X85431714Y-24929001D01*
X85420066Y-24930036D01*
X85312334Y-24939613D01*
X85116704Y-24995589D01*
X85026522Y-25042696D01*
X84936343Y-25089802D01*
X84936341Y-25089803D01*
X84936340Y-25089804D01*
X84798111Y-25202515D01*
X84733714Y-25229624D01*
X84664885Y-25217615D01*
X84641389Y-25202515D01*
X84503159Y-25089804D01*
X84503160Y-25089804D01*
X84503157Y-25089802D01*
X84322799Y-24995591D01*
X84322798Y-24995590D01*
X84322795Y-24995589D01*
X84205579Y-24962050D01*
X84127168Y-24939614D01*
X84127165Y-24939613D01*
X84127163Y-24939613D01*
X84060852Y-24933717D01*
X84007787Y-24929000D01*
X84007782Y-24929000D01*
X82891721Y-24929000D01*
X82891715Y-24929000D01*
X82891714Y-24929001D01*
X82880066Y-24930036D01*
X82772334Y-24939613D01*
X82576704Y-24995589D01*
X82486522Y-25042696D01*
X82396343Y-25089802D01*
X82396341Y-25089803D01*
X82396340Y-25089804D01*
X82238640Y-25218390D01*
X82110054Y-25376090D01*
X82110052Y-25376093D01*
X82068679Y-25455297D01*
X82015839Y-25556454D01*
X81959864Y-25752083D01*
X81959863Y-25752086D01*
X81949250Y-25871466D01*
X81949250Y-27737528D01*
X81949251Y-27737534D01*
X81959863Y-27856915D01*
X82015839Y-28052545D01*
X82015840Y-28052548D01*
X82015841Y-28052549D01*
X82110052Y-28232907D01*
X82110054Y-28232909D01*
X82238640Y-28390609D01*
X82332553Y-28467184D01*
X82396343Y-28519198D01*
X82576701Y-28613409D01*
X82772332Y-28669386D01*
X82891713Y-28680000D01*
X84007786Y-28679999D01*
X84127168Y-28669386D01*
X84322799Y-28613409D01*
X84503157Y-28519198D01*
X84641390Y-28406483D01*
X84705785Y-28379375D01*
X84774615Y-28391384D01*
X84798107Y-28406481D01*
X84936343Y-28519198D01*
X85116701Y-28613409D01*
X85312332Y-28669386D01*
X85431713Y-28680000D01*
X86547786Y-28679999D01*
X86667168Y-28669386D01*
X86862799Y-28613409D01*
X87043157Y-28519198D01*
X87181390Y-28406483D01*
X87245785Y-28379375D01*
X87314615Y-28391384D01*
X87338107Y-28406481D01*
X87476343Y-28519198D01*
X87656701Y-28613409D01*
X87852332Y-28669386D01*
X87858884Y-28669968D01*
X87861398Y-28670192D01*
X87926431Y-28695736D01*
X87961072Y-28737743D01*
X87966869Y-28749206D01*
X87970173Y-28761535D01*
X87992092Y-28799500D01*
X87993808Y-28802473D01*
X87993811Y-28802478D01*
X88049231Y-28898467D01*
X88168099Y-29017335D01*
X88168105Y-29017340D01*
X88765425Y-29614660D01*
X88798910Y-29675983D01*
X88799361Y-29678149D01*
X88830261Y-29833491D01*
X88830264Y-29833501D01*
X88890602Y-29979172D01*
X88890609Y-29979185D01*
X88978210Y-30110288D01*
X88978213Y-30110292D01*
X89089707Y-30221786D01*
X89089711Y-30221789D01*
X89220814Y-30309390D01*
X89220827Y-30309397D01*
X89346741Y-30361552D01*
X89401145Y-30405393D01*
X89423210Y-30471687D01*
X89405931Y-30539386D01*
X89386970Y-30563794D01*
X84294633Y-35656130D01*
X84233310Y-35689615D01*
X84163618Y-35684631D01*
X84107685Y-35642759D01*
X84101958Y-35634421D01*
X84014503Y-35495237D01*
X83891012Y-35371746D01*
X83754088Y-35285712D01*
X82606526Y-36433276D01*
X81733301Y-37306499D01*
X81733302Y-37306500D01*
X82344902Y-37306500D01*
X82411941Y-37326185D01*
X82457696Y-37378989D01*
X82467640Y-37448147D01*
X82438615Y-37511703D01*
X82432583Y-37518181D01*
X76319481Y-43631282D01*
X76319479Y-43631284D01*
X76313093Y-43642346D01*
X76285231Y-43690606D01*
X76240423Y-43768215D01*
X76199499Y-43920943D01*
X76199499Y-43920945D01*
X76199499Y-44089046D01*
X76199500Y-44089059D01*
X76199500Y-51175500D01*
X76179815Y-51242539D01*
X76127011Y-51288294D01*
X76075501Y-51299500D01*
X75952130Y-51299500D01*
X75952123Y-51299501D01*
X75892516Y-51305908D01*
X75757671Y-51356202D01*
X75757664Y-51356206D01*
X75642455Y-51442452D01*
X75642452Y-51442455D01*
X75556206Y-51557664D01*
X75556202Y-51557671D01*
X75505908Y-51692517D01*
X75504202Y-51708390D01*
X75499500Y-51752127D01*
X75499500Y-52414038D01*
X75499501Y-52976500D01*
X75479816Y-53043539D01*
X75427013Y-53089294D01*
X75375501Y-53100500D01*
X74001097Y-53100500D01*
X73934058Y-53080815D01*
X73913416Y-53064181D01*
X71532158Y-50682923D01*
X71498673Y-50621600D01*
X71501907Y-50556928D01*
X71561090Y-50374785D01*
X71600500Y-50125962D01*
X71600500Y-49874038D01*
X71561090Y-49625215D01*
X71483241Y-49385621D01*
X71483239Y-49385618D01*
X71483239Y-49385616D01*
X71441747Y-49304184D01*
X71368870Y-49161155D01*
X71349952Y-49135117D01*
X71220798Y-48957350D01*
X71220794Y-48957345D01*
X71042654Y-48779205D01*
X71042649Y-48779201D01*
X70838848Y-48631132D01*
X70838847Y-48631131D01*
X70838845Y-48631130D01*
X70768747Y-48595413D01*
X70614383Y-48516760D01*
X70374785Y-48438910D01*
X70125962Y-48399500D01*
X69874038Y-48399500D01*
X69749626Y-48419205D01*
X69625214Y-48438910D01*
X69385616Y-48516760D01*
X69161151Y-48631132D01*
X68957350Y-48779201D01*
X68957345Y-48779205D01*
X68779205Y-48957345D01*
X68779201Y-48957350D01*
X68631132Y-49161151D01*
X68631130Y-49161155D01*
X68551686Y-49317074D01*
X68544185Y-49331795D01*
X68496211Y-49382591D01*
X68433700Y-49399500D01*
X51566300Y-49399500D01*
X51499261Y-49379815D01*
X51455815Y-49331795D01*
X51368870Y-49161155D01*
X51349952Y-49135117D01*
X51220798Y-48957350D01*
X51220794Y-48957345D01*
X51042654Y-48779205D01*
X51042649Y-48779201D01*
X50838848Y-48631132D01*
X50838847Y-48631131D01*
X50838845Y-48631130D01*
X50768747Y-48595413D01*
X50614383Y-48516760D01*
X50374785Y-48438910D01*
X50125962Y-48399500D01*
X49874038Y-48399500D01*
X49749626Y-48419205D01*
X49625214Y-48438910D01*
X49385616Y-48516760D01*
X49161151Y-48631132D01*
X48957350Y-48779201D01*
X48957345Y-48779205D01*
X48779205Y-48957345D01*
X48779201Y-48957350D01*
X48631132Y-49161151D01*
X48516760Y-49385616D01*
X48438910Y-49625214D01*
X48399500Y-49874038D01*
X33700500Y-49874038D01*
X33700500Y-35937969D01*
X80679750Y-35937969D01*
X80679750Y-36575030D01*
X80694398Y-36705039D01*
X80752080Y-36869886D01*
X80844996Y-37017762D01*
X80968490Y-37141256D01*
X81105409Y-37227287D01*
X81105410Y-37227287D01*
X82076198Y-36256500D01*
X81105410Y-35285712D01*
X80968487Y-35371746D01*
X80844996Y-35495237D01*
X80752080Y-35643113D01*
X80694398Y-35807960D01*
X80679750Y-35937969D01*
X33700500Y-35937969D01*
X33700500Y-35206500D01*
X81733301Y-35206500D01*
X82429750Y-35902948D01*
X83126198Y-35206500D01*
X81733301Y-35206500D01*
X33700500Y-35206500D01*
X33700500Y-33397941D01*
X80679250Y-33397941D01*
X80679250Y-34035058D01*
X80693907Y-34165148D01*
X80693909Y-34165158D01*
X80718318Y-34234914D01*
X80751628Y-34330106D01*
X80844603Y-34478076D01*
X80968174Y-34601647D01*
X81116144Y-34694622D01*
X81281093Y-34752341D01*
X81281099Y-34752341D01*
X81281101Y-34752342D01*
X81322500Y-34757006D01*
X81411192Y-34766999D01*
X81411195Y-34767000D01*
X81411198Y-34767000D01*
X83448305Y-34767000D01*
X83448306Y-34766999D01*
X83578407Y-34752341D01*
X83743356Y-34694622D01*
X83891326Y-34601647D01*
X84014897Y-34478076D01*
X84107872Y-34330106D01*
X84165591Y-34165157D01*
X84180250Y-34035052D01*
X84180250Y-33397948D01*
X84165591Y-33267843D01*
X84107872Y-33102894D01*
X84014897Y-32954924D01*
X83891326Y-32831353D01*
X83743356Y-32738378D01*
X83743355Y-32738377D01*
X83743354Y-32738377D01*
X83578408Y-32680659D01*
X83578398Y-32680657D01*
X83448308Y-32666000D01*
X83448302Y-32666000D01*
X81411198Y-32666000D01*
X81411191Y-32666000D01*
X81281101Y-32680657D01*
X81281091Y-32680659D01*
X81116145Y-32738377D01*
X80968173Y-32831353D01*
X80844603Y-32954923D01*
X80751627Y-33102895D01*
X80693909Y-33267841D01*
X80693907Y-33267851D01*
X80679250Y-33397941D01*
X33700500Y-33397941D01*
X33700500Y-28078711D01*
X36949500Y-28078711D01*
X36949500Y-28321288D01*
X36981161Y-28561785D01*
X37043947Y-28796104D01*
X37119379Y-28978213D01*
X37136776Y-29020212D01*
X37258064Y-29230289D01*
X37258066Y-29230292D01*
X37258067Y-29230293D01*
X37405733Y-29422736D01*
X37405739Y-29422743D01*
X37577256Y-29594260D01*
X37577262Y-29594265D01*
X37769711Y-29741936D01*
X37979788Y-29863224D01*
X38203900Y-29956054D01*
X38438211Y-30018838D01*
X38618586Y-30042584D01*
X38678711Y-30050500D01*
X38678712Y-30050500D01*
X38921289Y-30050500D01*
X38969388Y-30044167D01*
X39161789Y-30018838D01*
X39396100Y-29956054D01*
X39620212Y-29863224D01*
X39830289Y-29741936D01*
X40022738Y-29594265D01*
X40194265Y-29422738D01*
X40341936Y-29230289D01*
X40463224Y-29020212D01*
X40556054Y-28796100D01*
X40618838Y-28561789D01*
X40650500Y-28321288D01*
X40650500Y-28078712D01*
X40618838Y-27838211D01*
X40556054Y-27603900D01*
X40463224Y-27379788D01*
X40341936Y-27169711D01*
X40194265Y-26977262D01*
X40194260Y-26977256D01*
X40022743Y-26805739D01*
X40022736Y-26805733D01*
X39830293Y-26658067D01*
X39830292Y-26658066D01*
X39830289Y-26658064D01*
X39620212Y-26536776D01*
X39620205Y-26536773D01*
X39396104Y-26443947D01*
X39161785Y-26381161D01*
X38921289Y-26349500D01*
X38921288Y-26349500D01*
X38678712Y-26349500D01*
X38678711Y-26349500D01*
X38438214Y-26381161D01*
X38203895Y-26443947D01*
X37979794Y-26536773D01*
X37979785Y-26536777D01*
X37769706Y-26658067D01*
X37577263Y-26805733D01*
X37577256Y-26805739D01*
X37405739Y-26977256D01*
X37405733Y-26977263D01*
X37258067Y-27169706D01*
X37136777Y-27379785D01*
X37136773Y-27379794D01*
X37043947Y-27603895D01*
X36981161Y-27838214D01*
X36949500Y-28078711D01*
X33700500Y-28078711D01*
X33700500Y-26803051D01*
X33700649Y-26796967D01*
X33717052Y-26463072D01*
X33718245Y-26450962D01*
X33728599Y-26381161D01*
X33766849Y-26123296D01*
X33769218Y-26111385D01*
X33849710Y-25790043D01*
X33853240Y-25778411D01*
X33862661Y-25752082D01*
X33964835Y-25466525D01*
X33969476Y-25455318D01*
X34111124Y-25155828D01*
X34116840Y-25145136D01*
X34287145Y-24860998D01*
X34293888Y-24850905D01*
X34491232Y-24584818D01*
X34498935Y-24575433D01*
X34721405Y-24329975D01*
X34729975Y-24321405D01*
X34975433Y-24098935D01*
X34984818Y-24091232D01*
X35250905Y-23893888D01*
X35260998Y-23887145D01*
X35545136Y-23716840D01*
X35555828Y-23711124D01*
X35855318Y-23569476D01*
X35866525Y-23564835D01*
X36178412Y-23453239D01*
X36190043Y-23449710D01*
X36511385Y-23369218D01*
X36523296Y-23366849D01*
X36850962Y-23318244D01*
X36863068Y-23317052D01*
X37196967Y-23300648D01*
X37203051Y-23300500D01*
X37265892Y-23300500D01*
X97734108Y-23300500D01*
X97796949Y-23300500D01*
X97803032Y-23300648D01*
G37*
%TD.AperFunction*%
%TD*%
M02*
