%TF.GenerationSoftware,KiCad,Pcbnew,9.0.1*%
%TF.CreationDate,2025-07-05T23:22:52+10:00*%
%TF.ProjectId,macropad,6d616372-6f70-4616-942e-6b696361645f,rev?*%
%TF.SameCoordinates,Original*%
%TF.FileFunction,Copper,L2,Bot*%
%TF.FilePolarity,Positive*%
%FSLAX46Y46*%
G04 Gerber Fmt 4.6, Leading zero omitted, Abs format (unit mm)*
G04 Created by KiCad (PCBNEW 9.0.1) date 2025-07-05 23:22:52*
%MOMM*%
%LPD*%
G01*
G04 APERTURE LIST*
%TA.AperFunction,ComponentPad*%
%ADD10O,1.600000X1.600000*%
%TD*%
%TA.AperFunction,ComponentPad*%
%ADD11R,1.600000X1.600000*%
%TD*%
%TA.AperFunction,ComponentPad*%
%ADD12C,2.200000*%
%TD*%
%TA.AperFunction,ViaPad*%
%ADD13C,0.600000*%
%TD*%
%TA.AperFunction,Conductor*%
%ADD14C,0.200000*%
%TD*%
G04 APERTURE END LIST*
D10*
%TO.P,D1,2,A*%
%TO.N,Net-(D1-A)*%
X57200000Y-52390000D03*
D11*
%TO.P,D1,1,K*%
%TO.N,ROW 1*%
X57200000Y-60010000D03*
%TD*%
D12*
%TO.P,SW1,2,2*%
%TO.N,Net-(D1-A)*%
X43650000Y-52540000D03*
%TO.P,SW1,1,1*%
%TO.N,COL 1*%
X50000000Y-50000000D03*
%TD*%
%TO.P,SW6,1,1*%
%TO.N,ROW 1*%
X90000000Y-70000000D03*
%TO.P,SW6,2,2*%
%TO.N,Net-(D6-A)*%
X83650000Y-72540000D03*
%TD*%
%TO.P,SW5,1,1*%
%TO.N,COL 1*%
X90000000Y-50000000D03*
%TO.P,SW5,2,2*%
%TO.N,Net-(D5-A)*%
X83650000Y-52540000D03*
%TD*%
%TO.P,SW4,1,1*%
%TO.N,ROW 1*%
X70000000Y-70000000D03*
%TO.P,SW4,2,2*%
%TO.N,Net-(D4-A)*%
X63650000Y-72540000D03*
%TD*%
%TO.P,SW3,1,1*%
%TO.N,COL 1*%
X70000000Y-50000000D03*
%TO.P,SW3,2,2*%
%TO.N,Net-(D3-A)*%
X63650000Y-52540000D03*
%TD*%
%TO.P,SW2,1,1*%
%TO.N,COL 2*%
X50000000Y-70000000D03*
%TO.P,SW2,2,2*%
%TO.N,Net-(D2-A)*%
X43650000Y-72540000D03*
%TD*%
D11*
%TO.P,D6,1,K*%
%TO.N,ROW 3*%
X96800000Y-70390000D03*
D10*
%TO.P,D6,2,A*%
%TO.N,Net-(D6-A)*%
X96800000Y-78010000D03*
%TD*%
D11*
%TO.P,D5,1,K*%
%TO.N,ROW 3*%
X96400000Y-52790000D03*
D10*
%TO.P,D5,2,A*%
%TO.N,Net-(D5-A)*%
X96400000Y-60410000D03*
%TD*%
D11*
%TO.P,D4,1,K*%
%TO.N,ROW 2*%
X77000000Y-69990000D03*
D10*
%TO.P,D4,2,A*%
%TO.N,Net-(D4-A)*%
X77000000Y-77610000D03*
%TD*%
D11*
%TO.P,D3,1,K*%
%TO.N,ROW 2*%
X76800000Y-52600000D03*
D10*
%TO.P,D3,2,A*%
%TO.N,Net-(D3-A)*%
X76800000Y-60220000D03*
%TD*%
D11*
%TO.P,D2,1,K*%
%TO.N,ROW 1*%
X57000000Y-71390000D03*
D10*
%TO.P,D2,2,A*%
%TO.N,Net-(D2-A)*%
X57000000Y-79010000D03*
%TD*%
D13*
%TO.N,COL 1*%
X97000000Y-30600000D03*
%TO.N,ROW 1*%
X92600000Y-29200000D03*
%TO.N,COL 2*%
X78200000Y-44400000D03*
%TO.N,ROW 3*%
X89600000Y-29600000D03*
%TO.N,COL 1*%
X98000000Y-47400000D03*
%TO.N,ROW 1*%
X89400000Y-65600000D03*
%TO.N,COL 2*%
X55200000Y-67000000D03*
%TO.N,ROW 2*%
X78800000Y-68600000D03*
%TD*%
D14*
%TO.N,COL 1*%
X97000000Y-46400000D02*
X98000000Y-47400000D01*
X97000000Y-30600000D02*
X97000000Y-46400000D01*
%TO.N,ROW 1*%
X86999000Y-31351057D02*
X86999000Y-48980314D01*
X92600000Y-29200000D02*
X92399000Y-28999000D01*
X92399000Y-28999000D02*
X89351057Y-28999000D01*
X89351057Y-28999000D02*
X86999000Y-31351057D01*
%TO.N,COL 2*%
X78200000Y-44400000D02*
X75699000Y-46901000D01*
%TO.N,ROW 3*%
X89600000Y-29600000D02*
X96400000Y-36400000D01*
X96400000Y-36400000D02*
X96400000Y-52790000D01*
X92400000Y-62400000D02*
X96800000Y-66800000D01*
X92400000Y-60600000D02*
X92400000Y-62400000D01*
X96400000Y-56600000D02*
X92400000Y-60600000D01*
X96400000Y-56600000D02*
X96400000Y-52790000D01*
%TO.N,ROW 1*%
X89400000Y-65600000D02*
X89811000Y-65189000D01*
X89811000Y-65189000D02*
X89811000Y-51792314D01*
X89811000Y-51792314D02*
X86999000Y-48980314D01*
%TO.N,COL 2*%
X75699000Y-53701000D02*
X75699000Y-46901000D01*
X62400000Y-67000000D02*
X75699000Y-53701000D01*
X55200000Y-67000000D02*
X62400000Y-67000000D01*
%TO.N,ROW 2*%
X78800000Y-60662950D02*
X76800000Y-58662950D01*
X76800000Y-58662950D02*
X76800000Y-52600000D01*
X78800000Y-68600000D02*
X78800000Y-60662950D01*
%TO.N,ROW 3*%
X96800000Y-70390000D02*
X96800000Y-66800000D01*
%TD*%
M02*
