%TF.GenerationSoftware,KiCad,Pcbnew,9.0.1*%
%TF.CreationDate,2025-07-05T23:22:53+10:00*%
%TF.ProjectId,macropad,6d616372-6f70-4616-942e-6b696361645f,rev?*%
%TF.SameCoordinates,Original*%
%TF.FileFunction,Soldermask,Top*%
%TF.FilePolarity,Negative*%
%FSLAX46Y46*%
G04 Gerber Fmt 4.6, Leading zero omitted, Abs format (unit mm)*
G04 Created by KiCad (PCBNEW 9.0.1) date 2025-07-05 23:22:53*
%MOMM*%
%LPD*%
G01*
G04 APERTURE LIST*
G04 Aperture macros list*
%AMRoundRect*
0 Rectangle with rounded corners*
0 $1 Rounding radius*
0 $2 $3 $4 $5 $6 $7 $8 $9 X,Y pos of 4 corners*
0 Add a 4 corners polygon primitive as box body*
4,1,4,$2,$3,$4,$5,$6,$7,$8,$9,$2,$3,0*
0 Add four circle primitives for the rounded corners*
1,1,$1+$1,$2,$3*
1,1,$1+$1,$4,$5*
1,1,$1+$1,$6,$7*
1,1,$1+$1,$8,$9*
0 Add four rect primitives between the rounded corners*
20,1,$1+$1,$2,$3,$4,$5,0*
20,1,$1+$1,$4,$5,$6,$7,0*
20,1,$1+$1,$6,$7,$8,$9,0*
20,1,$1+$1,$8,$9,$2,$3,0*%
G04 Aperture macros list end*
%ADD10C,3.200000*%
%ADD11O,1.600000X1.600000*%
%ADD12R,1.600000X1.600000*%
%ADD13C,2.200000*%
%ADD14C,1.700000*%
%ADD15C,4.000000*%
%ADD16RoundRect,0.525400X-0.525400X0.900400X-0.525400X-0.900400X0.525400X-0.900400X0.525400X0.900400X0*%
%ADD17RoundRect,0.275000X0.975000X0.275000X-0.975000X0.275000X-0.975000X-0.275000X0.975000X-0.275000X0*%
G04 APERTURE END LIST*
D10*
%TO.C,REF\u002A\u002A*%
X97200000Y-84800000D03*
%TD*%
%TO.C,REF\u002A\u002A*%
X38000000Y-84600000D03*
%TD*%
%TO.C,REF\u002A\u002A*%
X38800000Y-28200000D03*
%TD*%
D11*
%TO.C,D1*%
X57200000Y-52390000D03*
D12*
X57200000Y-60010000D03*
%TD*%
D13*
%TO.C,SW1*%
X43650000Y-52540000D03*
X50000000Y-50000000D03*
D14*
X52540000Y-55080000D03*
D15*
X47460000Y-55080000D03*
D14*
X42380000Y-55080000D03*
%TD*%
%TO.C,SW6*%
X82380000Y-75080000D03*
D15*
X87460000Y-75080000D03*
D14*
X92540000Y-75080000D03*
D13*
X90000000Y-70000000D03*
X83650000Y-72540000D03*
%TD*%
D14*
%TO.C,SW5*%
X82380000Y-55080000D03*
D15*
X87460000Y-55080000D03*
D14*
X92540000Y-55080000D03*
D13*
X90000000Y-50000000D03*
X83650000Y-52540000D03*
%TD*%
D14*
%TO.C,SW4*%
X62380000Y-75080000D03*
D15*
X67460000Y-75080000D03*
D14*
X72540000Y-75080000D03*
D13*
X70000000Y-70000000D03*
X63650000Y-72540000D03*
%TD*%
D14*
%TO.C,SW3*%
X62380000Y-55080000D03*
D15*
X67460000Y-55080000D03*
D14*
X72540000Y-55080000D03*
D13*
X70000000Y-50000000D03*
X63650000Y-52540000D03*
%TD*%
D14*
%TO.C,SW2*%
X42380000Y-75080000D03*
D15*
X47460000Y-75080000D03*
D14*
X52540000Y-75080000D03*
D13*
X50000000Y-70000000D03*
X43650000Y-72540000D03*
%TD*%
D12*
%TO.C,D6*%
X96800000Y-70390000D03*
D11*
X96800000Y-78010000D03*
%TD*%
D12*
%TO.C,D5*%
X96400000Y-52790000D03*
D11*
X96400000Y-60410000D03*
%TD*%
D12*
%TO.C,D4*%
X77000000Y-69990000D03*
D11*
X77000000Y-77610000D03*
%TD*%
D12*
%TO.C,D3*%
X76800000Y-52600000D03*
D11*
X76800000Y-60220000D03*
%TD*%
D12*
%TO.C,D2*%
X57000000Y-71390000D03*
D11*
X57000000Y-79010000D03*
%TD*%
D16*
%TO.C,U1*%
X98689750Y-26804500D03*
X96149750Y-26804500D03*
X93609750Y-26804500D03*
X91069750Y-26804500D03*
X88529750Y-26804500D03*
X85989750Y-26804500D03*
X83449750Y-26804500D03*
X83449750Y-42969500D03*
X85989750Y-42969500D03*
X88529750Y-42969500D03*
X91069750Y-42969500D03*
X93609750Y-42969500D03*
X96149750Y-42969500D03*
X98689750Y-42969500D03*
D17*
X82429750Y-33716500D03*
X82429750Y-36256500D03*
D14*
X99447750Y-33716500D03*
X99447750Y-36256500D03*
X96907750Y-33716500D03*
X96907750Y-36256500D03*
%TD*%
M02*
